<svg width="58" height="69" viewBox="0 0 58 69" fill="none" xmlns="http://www.w3.org/2000/svg">
<path d="M55.8291 32.391C55.6464 32.2568 55.451 32.1452 55.2463 32.0584C54.8787 29.2811 53.2606 20.5089 47.0248 14.0802C47.1365 12.4906 46.9422 10.8928 46.4549 9.39317C45.9676 7.89349 45.1985 6.5263 44.1987 5.38257C44.1403 5.31635 44.1006 5.23269 44.0843 5.14179C44.068 5.0509 44.0759 4.9567 44.1069 4.87069C44.4195 4.00591 44.6616 3.11169 44.8302 2.19882C44.8823 1.91449 44.8335 1.61882 44.694 1.37354C44.5545 1.12827 44.3351 0.952361 44.0816 0.882566C43.8358 0.84224 43.5854 0.906852 43.3808 1.0634C43.1761 1.21994 43.0324 1.45681 42.9786 1.72632C42.3644 3.75357 41.5765 5.71066 40.6258 7.57069C40.6128 7.59673 40.6057 7.62592 40.6052 7.65572C40.6046 7.68552 40.6107 7.715 40.6228 7.74159C40.6349 7.76817 40.6527 7.79105 40.6747 7.8082C40.6966 7.82536 40.722 7.83627 40.7486 7.83999C40.9769 7.87281 41.1866 7.99665 41.3388 8.18848C41.491 8.3803 41.5753 8.62704 41.576 8.88276C41.5767 9.13849 41.4937 9.38579 41.3426 9.57863C41.1914 9.77147 40.9824 9.89673 40.7543 9.93108C40.5821 9.95402 40.4088 9.96482 40.2354 9.96343C39.4571 9.99148 38.6856 9.79431 37.9966 9.39123C37.3076 8.98816 36.7246 8.39303 36.305 7.66421C36.1835 7.45619 36.1292 7.20853 36.1509 6.96174C36.1727 6.71496 36.2691 6.48368 36.4246 6.30577C36.5274 6.19466 36.6516 6.1109 36.7878 6.06078C36.924 6.01066 37.0686 5.99549 37.2108 6.0164C37.353 6.03731 37.4891 6.09376 37.6089 6.18151C37.7286 6.26926 37.8289 6.38603 37.9022 6.52304C38.0066 6.71746 38.1332 6.89612 38.2787 7.0546C39.0976 6.64186 39.9981 5.02046 40.6043 3.27741C40.6267 3.21177 40.6373 3.14186 40.6353 3.07169C40.6334 3.00152 40.6189 2.93246 40.5929 2.8685C40.5668 2.80454 40.5297 2.74692 40.4835 2.69896C40.4374 2.65101 40.3832 2.61365 40.324 2.58905C38.2207 1.74684 35.9254 1.70369 33.7977 2.46637C31.67 3.22905 29.8301 4.75445 28.5663 6.80358H28.4999C6.28184 6.80358 2.34701 27.5289 1.75343 32.0633C1.3357 32.2288 0.965222 32.515 0.680141 32.8924C0.395061 33.2698 0.205689 33.7249 0.131532 34.2107C-0.0500492 35.0219 -0.0387095 35.8717 0.164439 36.6766L5.9667 60.336C6.57244 62.7899 7.88592 64.9552 9.70569 66.4998C11.5255 68.0445 13.751 68.8832 16.0411 68.8874H40.9587C43.2487 68.8832 45.4743 68.0445 47.2941 66.4998C49.1138 64.9552 50.4273 62.7899 51.0331 60.336L57.0169 35.9376C57.1829 35.2828 57.1572 34.5865 56.9437 33.949C56.7302 33.3115 56.3399 32.7659 55.8291 32.391ZM13.8851 62.1191C13.8199 62.1344 13.7536 62.1422 13.687 62.1423C13.4695 62.1421 13.2587 62.0588 13.0898 61.9065C12.9209 61.7542 12.8043 61.5421 12.7593 61.3056L9.00103 41.5935C8.94884 41.3198 8.99662 41.0344 9.13387 40.7998C9.27111 40.5653 9.48658 40.401 9.73288 40.343C9.97917 40.285 10.2361 40.3381 10.4472 40.4906C10.6582 40.6431 10.8061 40.8825 10.8583 41.1562L14.6166 60.8662C14.6428 61.0018 14.6446 61.1419 14.622 61.2783C14.5994 61.4148 14.5528 61.5449 14.4848 61.6613C14.4169 61.7777 14.3289 61.878 14.226 61.9566C14.1231 62.0352 14.0072 62.0904 13.8851 62.1191ZM23.1089 63.4305C23.0931 63.4305 23.0767 63.4305 23.0602 63.4305C22.8167 63.4308 22.5824 63.3272 22.4057 63.1409C22.229 62.9547 22.1235 62.7001 22.111 62.4299L21.1042 40.4179C21.0914 40.1382 21.1792 39.8643 21.3482 39.6565C21.5172 39.4486 21.7536 39.3239 22.0053 39.3098C22.2571 39.2956 22.5036 39.3931 22.6906 39.5809C22.8776 39.7687 22.9899 40.0313 23.0026 40.311L24.0069 62.3237C24.0197 62.6027 23.9323 62.876 23.7639 63.0834C23.5956 63.2909 23.36 63.4157 23.1089 63.4305ZM34.8869 62.4313C34.8744 62.7015 34.7689 62.9561 34.5922 63.1423C34.4155 63.3286 34.1812 63.4322 33.9376 63.4319C33.9212 63.4319 33.9047 63.4319 33.8889 63.4319C33.6375 63.4177 33.4015 63.2931 33.2327 63.0856C33.0639 62.878 32.9763 62.6045 32.9891 62.3251L33.9978 40.3124C34.0041 40.1739 34.0349 40.0381 34.0884 39.9129C34.142 39.7876 34.2172 39.6753 34.3098 39.5823C34.4024 39.4893 34.5106 39.4175 34.6282 39.371C34.7457 39.3245 34.8704 39.3041 34.9951 39.3112C35.1197 39.3182 35.2419 39.3524 35.3547 39.4119C35.4674 39.4714 35.5685 39.555 35.6522 39.6579C35.7359 39.7608 35.8005 39.881 35.8423 40.0116C35.8842 40.1423 35.9025 40.2808 35.8962 40.4193L34.8869 62.4313ZM47.9987 41.5935L44.2405 61.3035C44.1955 61.54 44.0788 61.7521 43.91 61.9044C43.7411 62.0567 43.5303 62.14 43.3128 62.1402C43.2462 62.1401 43.1798 62.1323 43.1147 62.117C42.9927 62.0883 42.8771 62.0331 42.7743 61.9547C42.6715 61.8763 42.5837 61.7761 42.5157 61.66C42.4478 61.5438 42.4011 61.4139 42.3784 61.2777C42.3556 61.1415 42.3573 61.0017 42.3832 60.8662L46.1414 41.1562C46.1936 40.8825 46.3415 40.6431 46.5526 40.4906C46.7636 40.3381 47.0206 40.285 47.2669 40.343C47.5132 40.401 47.7286 40.5653 47.8659 40.7998C48.0031 41.0344 48.0509 41.3198 47.9987 41.5935ZM51.6785 33.1876C50.5433 34.2283 49.5624 35.1269 47.5241 35.1269C45.4858 35.1269 44.505 34.2283 43.3697 33.1876C42.1313 32.0521 40.7271 30.7654 38.0066 30.7654C35.2862 30.7654 33.8845 32.0521 32.6467 33.1876C31.5121 34.2283 30.5325 35.1269 28.4961 35.1269C26.4597 35.1269 25.4782 34.2283 24.3429 33.1876C23.1052 32.0521 21.7016 30.7654 18.9817 30.7654C16.2619 30.7654 14.8596 32.0521 13.6218 33.1876C12.4872 34.2283 11.5076 35.1269 9.47121 35.1269C7.43482 35.1269 6.45396 34.2283 5.31933 33.1876C4.80282 32.7323 4.25022 32.3298 3.66832 31.9853C4.28911 27.287 7.93348 9.531 27.5146 8.94108C27.0797 10.0905 26.8229 11.3134 26.7552 12.558C26.6138 15.317 27.3881 18.0378 28.9314 20.2049C30.4747 22.3721 32.6798 23.835 35.1289 24.3165C37.578 24.798 40.101 24.2646 42.2199 22.8175C44.3387 21.3703 45.9063 19.1099 46.6255 16.4645C51.5754 22.0895 52.9638 29.2424 53.3276 31.986C52.7463 32.3309 52.1943 32.7338 51.6785 33.1898V33.1876Z" fill="#DB3559"/>
</svg>
