<svg width="70" height="69" viewBox="0 0 70 69" fill="none" xmlns="http://www.w3.org/2000/svg">
<path d="M12.2441 49.8379C10.3659 49.8379 8.52985 50.3948 6.96817 51.4383C5.40649 52.4818 4.18932 53.9649 3.47056 55.7002C2.75179 57.4354 2.56373 59.3448 2.93016 61.187C3.29658 63.0291 4.20102 64.7212 5.52912 66.0493C6.85721 67.3774 8.54931 68.2818 10.3914 68.6482C12.2336 69.0147 14.143 68.8266 15.8782 68.1078C17.6134 67.3891 19.0966 66.1719 20.1401 64.6102C21.1835 63.0485 21.7405 61.2125 21.7405 59.3343C21.7375 56.8166 20.736 54.4029 18.9558 52.6226C17.1755 50.8423 14.7618 49.8409 12.2441 49.8379ZM12.2441 62.5237C11.6133 62.5238 10.9966 62.3369 10.472 61.9865C9.94739 61.6361 9.53849 61.1381 9.29699 60.5553C9.05549 59.9725 8.99223 59.3312 9.11521 58.7125C9.23819 58.0938 9.5419 57.5254 9.98791 57.0793C10.4339 56.6332 11.0022 56.3294 11.6209 56.2063C12.2396 56.0831 12.8809 56.1463 13.4637 56.3876C14.0466 56.629 14.5447 57.0378 14.8952 57.5623C15.2457 58.0868 15.4328 58.7035 15.4328 59.3343C15.4328 60.18 15.0968 60.9912 14.4989 61.5893C13.9009 62.1874 13.0898 62.5235 12.2441 62.5237Z" fill="#DB3559"/>
<path d="M54.7346 49.8379C52.8564 49.8379 51.0203 50.3948 49.4587 51.4383C47.897 52.4818 46.6798 53.9649 45.961 55.7002C45.2423 57.4354 45.0542 59.3448 45.4206 61.187C45.7871 63.0291 46.6915 64.7212 48.0196 66.0493C49.3477 67.3774 51.0398 68.2818 52.8819 68.6482C54.724 69.0147 56.6335 68.8266 58.3687 68.1078C60.1039 67.3891 61.5871 66.1719 62.6306 64.6102C63.674 63.0485 64.231 61.2125 64.231 59.3343C64.2282 56.8165 63.2268 54.4027 61.4465 52.6224C59.6662 50.8421 57.2523 49.8407 54.7346 49.8379ZM54.7346 62.5237C54.1038 62.5237 53.4871 62.3366 52.9627 61.9862C52.4382 61.6357 52.0294 61.1376 51.788 60.5548C51.5466 59.972 51.4834 59.3308 51.6065 58.7121C51.7295 58.0934 52.0333 57.5251 52.4793 57.0791C52.9254 56.633 53.4937 56.3293 54.1124 56.2062C54.731 56.0831 55.3723 56.1463 55.9551 56.3877C56.5379 56.6291 57.036 57.0379 57.3864 57.5624C57.7369 58.0869 57.9239 58.7035 57.9239 59.3343C57.924 59.7532 57.8416 60.1679 57.6814 60.5549C57.5211 60.9419 57.2862 61.2936 56.99 61.5897C56.6938 61.8859 56.3422 62.1208 55.9552 62.2811C55.5682 62.4413 55.1534 62.5238 54.7346 62.5237Z" fill="#DB3559"/>
<path d="M46.8829 0.268066C42.2851 0.268066 38.375 4.14158 38.375 9.45088C38.375 14.8713 43.2083 18.8854 46.0785 21.2796C46.3042 21.4686 46.5892 21.5722 46.8836 21.5722C47.178 21.5722 47.463 21.4686 47.6886 21.2796C50.5546 18.8826 55.3907 14.8748 55.3907 9.45088C55.3907 4.14158 51.4771 0.268066 46.8829 0.268066ZM46.8997 13.4812C46.0463 13.4813 45.2119 13.2284 44.5022 12.7543C43.7925 12.2802 43.2393 11.6064 42.9126 10.8179C42.5859 10.0294 42.5004 9.16181 42.6668 8.32472C42.8332 7.48763 43.2441 6.71869 43.8476 6.11514C44.451 5.5116 45.2199 5.10056 46.0569 4.934C46.894 4.76745 47.7617 4.85286 48.5502 5.17943C49.3387 5.50601 50.0127 6.05909 50.4868 6.76871C50.961 7.47834 51.2141 8.31264 51.2141 9.16611C51.2141 9.73302 51.1024 10.2944 50.8854 10.8181C50.6683 11.3418 50.3502 11.8176 49.9493 12.2183C49.5483 12.6191 49.0722 12.9368 48.5484 13.1535C48.0245 13.3702 47.4631 13.4816 46.8962 13.4812H46.8997Z" fill="#DB3559"/>
<path d="M68.2923 48.1554C68.2222 47.9972 68.1855 47.8263 68.1844 47.6534C68.1834 47.4804 68.2179 47.309 68.2859 47.15C68.9068 45.7304 69.4953 43.7475 68.1369 41.8062C67.5571 40.8689 66.6868 40.1468 65.6586 39.75C64.6304 39.3532 63.5007 39.3034 62.4416 39.6082C62.4184 39.6153 61.6681 39.9218 61.2919 40.0751C61.2271 40.1017 61.1569 40.1129 61.087 40.1078C61.0171 40.1026 60.9493 40.0814 60.8891 40.0456C60.4376 39.7819 59.9666 39.526 59.4694 39.2799C59.4111 39.2526 59.359 39.2134 59.3166 39.1649C59.2741 39.1164 59.2422 39.0596 59.2228 38.9982C59.2034 38.9367 59.1971 38.8719 59.204 38.8078C59.211 38.7437 59.2313 38.6818 59.2634 38.626C60.2816 36.9279 60.8806 34.5696 59.0722 32.591C58.5395 32.0287 57.8955 31.5834 57.1813 31.2835C56.4671 30.9837 55.6982 30.8358 54.9237 30.8494L37.3203 31.44C35.3326 31.44 33.5234 33.4151 33.5234 35.5843C33.4978 36.5041 33.7176 37.4143 34.1604 38.221C34.6032 39.0277 35.2529 39.7019 36.0427 40.1743C36.553 40.4222 36.9783 40.8159 37.2648 41.3056C38.1905 43.0431 38.6573 44.9882 38.6211 46.9566C38.6172 48.2041 38.1194 49.3993 37.2365 50.2807C36.3537 51.1621 35.1577 51.6579 33.9101 51.6598H28.153C27.5868 51.6658 27.0292 51.5215 26.5371 51.2415C26.045 50.9616 25.6359 50.5562 25.3517 50.0665C24.1451 47.9185 22.9941 43.6322 25.1717 36.7922C26.367 33.041 28.1164 26.5751 27.6376 22.1623L29.1022 20.9614C29.269 21.4049 29.5255 21.8092 29.8558 22.1489C30.1861 22.4887 30.5831 22.7565 31.0217 22.9357C31.2602 23.018 31.5106 23.0603 31.7628 23.0609C32.3282 23.0521 32.8729 22.8468 33.3034 22.4801C34.7441 21.3101 35.3853 18.5496 34.7954 16.0585C34.4129 14.4413 33.5733 13.3022 32.4926 12.9338C32.1056 12.8027 31.6908 12.7758 31.2901 12.8558C30.8894 12.9358 30.5167 13.1198 30.2096 13.3894C28.9819 14.3857 28.3435 16.5366 28.5425 18.6917L27.0969 19.8778C26.58 18.4936 25.6577 17.2973 24.4503 16.4455C23.243 15.5936 21.8067 15.1257 20.3293 15.1029C20.2899 15.1029 17.9162 15.1191 17.3466 15.214C17.0261 15.2724 16.7189 15.3889 16.4403 15.5578H16.4361C14.9145 16.4529 13.7895 18.833 13.7895 21.4395C13.7932 22.4716 14.0167 23.4911 14.4452 24.4301C14.8736 25.3691 15.4972 26.206 16.2744 26.8852C16.6083 27.1228 16.9692 27.3201 17.3494 27.473C17.5008 27.527 17.658 27.5631 17.8177 27.5806C18.8537 27.691 19.9006 27.6359 20.9192 27.4175C20.9569 27.4088 20.9964 27.4113 21.0327 27.4247C21.069 27.438 21.1007 27.4617 21.1238 27.4927C21.1509 27.5239 21.1682 27.5625 21.1736 27.6035C21.179 27.6445 21.1722 27.6861 21.1541 27.7233C19.4363 31.6095 16.2617 39.72 14.4877 44.3965C14.3784 44.6868 14.1762 44.9328 13.9126 45.0962C13.649 45.2596 13.3387 45.3313 13.0301 45.3C10.7182 45.0593 8.38315 45.415 6.24777 46.3333C4.11239 47.2516 2.24795 48.7017 0.832335 50.5453C0.446178 51.0343 0.260872 51.6521 0.314131 52.2729C0.361344 52.7576 0.557105 53.2158 0.874641 53.5849C1.19218 53.954 1.61599 54.2161 2.08812 54.3352C2.12171 54.344 2.15574 54.351 2.19007 54.3563L19.8455 57.0141C20.5661 57.1105 21.2587 57.3562 21.879 57.7355C22.5323 58.1501 23.2905 58.3697 24.0643 58.3683H66.9922C67.686 58.3707 68.3537 58.1042 68.8552 57.6248C69.3567 57.1453 69.6529 56.4902 69.6816 55.797C69.7885 53.1785 69.314 50.5688 68.2923 48.1554ZM31.5385 15.027C31.5971 14.967 31.6746 14.9293 31.7579 14.9201C31.8943 14.9243 32.0349 15.0607 32.1692 15.2309C32.4512 15.6229 32.6465 16.0703 32.7423 16.5436C33.0284 17.7532 32.9273 19.022 32.4533 20.171C32.3126 20.4657 32.0054 20.9382 31.7016 20.9382C31.4478 20.9382 31.0154 20.3595 30.77 19.321C30.3523 17.5617 30.8312 15.6014 31.5385 15.027ZM17.5892 25.0303C17.5801 25.0491 17.5667 25.0655 17.5502 25.0781C17.5337 25.0908 17.5144 25.0995 17.4939 25.1035C17.4735 25.1074 17.4524 25.1066 17.4323 25.1009C17.4122 25.0953 17.3937 25.0851 17.3783 25.0711C16.4383 24.0959 15.9079 22.7974 15.8961 21.443C15.8386 20.0895 16.2726 18.7609 17.1181 17.7024C17.1323 17.6871 17.15 17.6754 17.1697 17.6684C17.1893 17.6613 17.2104 17.6592 17.2311 17.662C17.2518 17.6648 17.2715 17.6726 17.2885 17.6846C17.3056 17.6967 17.3195 17.7126 17.3291 17.7312C17.9385 18.9237 18.2788 20.2354 18.3261 21.5738C18.3407 22.7664 18.0889 23.9473 17.5892 25.0303ZM56.8292 38.4094H37.3379C36.8457 38.4094 35.6328 37.4173 35.6328 35.5835C35.6331 35.0948 35.8064 34.6219 36.1219 34.2487C36.4375 33.8755 36.875 33.626 37.3569 33.5445L54.9568 32.956C55.4329 32.9457 55.9059 33.0341 56.3462 33.2156C56.7864 33.3971 57.1843 33.6678 57.5148 34.0107C58.94 35.5744 57.4845 37.6332 56.8292 38.4094ZM66.7123 45.3071C65.7293 43.9007 64.5401 42.6504 63.1848 41.5981C63.8034 41.466 64.4479 41.5322 65.0267 41.7873C65.6056 42.0424 66.0894 42.4734 66.4093 43.0191C66.6364 43.3497 66.7821 43.7293 66.8345 44.1269C66.8869 44.5245 66.8446 44.9289 66.7109 45.3071H66.7123Z" fill="#DB3559"/>
</svg>
