<svg width="61" height="75" viewBox="0 0 61 75" fill="none" xmlns="http://www.w3.org/2000/svg">
<path d="M30.557 1.5334C30.6134 1.59391 30.6816 1.64217 30.7575 1.67517C30.8333 1.70816 30.9152 1.72519 30.9979 1.72519C31.0806 1.72519 31.1624 1.70816 31.2383 1.67517C31.3141 1.64217 31.3823 1.59391 31.4387 1.5334C32.9744 -0.116135 36.1876 0.390818 37.3801 2.10855C39.4452 5.10176 38.0129 9.64605 31.6405 12.1161C31.2269 12.2743 30.7695 12.2743 30.3559 12.1161C23.9842 9.64605 22.5512 5.10176 24.6262 2.10855C25.8095 0.390818 29.0221 -0.116135 30.557 1.5334Z" fill="#DB3559"/>
<path d="M43.389 31.3642H12.4283C12.185 31.3642 11.9517 31.2676 11.7797 31.0956C11.6077 30.9236 11.5111 30.6903 11.5111 30.447C11.5111 30.2037 11.6077 29.9704 11.7797 29.7984C11.9517 29.6264 12.185 29.5298 12.4283 29.5298H43.389C43.6323 29.5298 43.8656 29.6264 44.0376 29.7984C44.2096 29.9704 44.3062 30.2037 44.3062 30.447C44.3062 30.6903 44.2096 30.9236 44.0376 31.0956C43.8656 31.2676 43.6323 31.3642 43.389 31.3642Z" fill="#DB3559"/>
<path d="M55.4885 31.7032C55.3725 31.4036 53.6604 20.0658 52.3244 17.2828C51.9539 16.5093 51.4343 15.4265 50.5209 15.1734C50.1542 15.1184 49.7799 15.1418 49.4229 15.242C49.0658 15.3423 48.7341 15.5171 48.4495 15.7549C48.3383 15.8393 48.1999 15.8797 48.0607 15.8686C47.9216 15.8574 47.7914 15.7954 47.6951 15.6944C47.3774 15.3802 46.9837 15.1538 46.5523 15.0373C46.1209 14.9209 45.6667 14.9183 45.2341 15.03C44.8095 15.1764 44.4245 15.419 44.1091 15.7387C43.9985 15.8223 43.8647 15.8695 43.7262 15.8738C43.5877 15.878 43.4512 15.8392 43.3357 15.7626C42.7726 15.2153 42.0233 14.9013 41.2383 14.8837C40.4827 14.8647 39.7455 15.118 39.1612 15.5974C38.9664 15.7815 38.7107 15.8875 38.4428 15.8951C38.1749 15.9028 37.9135 15.8116 37.7086 15.6389C37.1426 15.1824 36.4381 14.9322 35.711 14.9294C34.8887 14.9629 34.0927 15.2281 33.4146 15.6944C33.3105 15.7595 33.189 15.7913 33.0664 15.7855C32.9438 15.7797 32.8258 15.7367 32.7283 15.6621C31.9847 15.1217 31.0813 14.8461 30.1626 14.8795C29.6649 14.8579 29.1679 14.9359 28.7008 15.1089C28.2337 15.2819 27.8058 15.5465 27.4422 15.8871C27.3321 15.9879 27.1889 16.0448 27.0396 16.0472C26.8904 16.0495 26.7454 15.9971 26.6322 15.8997C26.0012 15.3071 25.1619 14.9873 24.2965 15.0096C23.5945 15.0102 22.9149 15.257 22.3762 15.7071C22.2632 15.7952 22.1236 15.8424 21.9803 15.8409C21.837 15.8393 21.6984 15.7892 21.5873 15.6986C20.9174 15.1488 20.0722 14.8581 19.2058 14.8795C18.7456 14.8711 18.2883 14.9548 17.8609 15.1257C17.4334 15.2965 17.0444 15.5511 16.7168 15.8744C16.6082 15.982 16.4633 16.0449 16.3105 16.0508C16.1578 16.0567 16.0085 16.005 15.892 15.9061C15.3801 15.4466 14.7443 15.148 14.0639 15.0475C13.3559 14.952 12.6371 15.1138 12.0384 15.5035C11.4396 15.8932 11.0006 16.4849 10.8014 17.171C10.2389 19.17 9.89927 23.2052 9.53576 26.1365C9.18419 28.9961 8.77568 30.4608 8.10701 31.7559C1.19388 45.1497 0.343804 60.7422 0.843023 71.4677C0.884501 72.369 1.2722 73.2195 1.92532 73.8419C2.57843 74.4644 3.44657 74.8108 4.3488 74.8089H56.8961C57.7688 74.8057 58.6091 74.478 59.2536 73.8895C59.898 73.3011 60.3006 72.494 60.3829 71.6252C61.1641 62.5584 60.1516 43.6 55.4885 31.7032ZM32.793 46.1081L29.7492 49.1519C29.4064 49.497 28.999 49.771 28.5501 49.9584C28.1013 50.1458 27.6199 50.2428 27.1336 50.2439C26.5961 50.2396 26.0669 50.1118 25.5867 49.8705L24.4406 51.0166L29.2556 55.8309C29.5899 56.1651 29.7777 56.6184 29.7778 57.091C29.7778 57.5637 29.5901 58.017 29.256 58.3513C28.9218 58.6855 28.4685 58.8734 27.9958 58.8734C27.5232 58.8735 27.0699 58.6858 26.7356 58.3516L22.4676 54.0836L18.2489 58.3024C18.0842 58.4707 17.8877 58.6046 17.6709 58.6964C17.454 58.7883 17.2211 58.8362 16.9857 58.8375C16.7502 58.8387 16.5168 58.7933 16.299 58.7038C16.0812 58.6142 15.8833 58.4824 15.7168 58.3159C15.5503 58.1494 15.4185 57.9515 15.3289 57.7337C15.2394 57.5159 15.1939 57.2825 15.1952 57.047C15.1964 56.8115 15.2444 56.5787 15.3362 56.3618C15.4281 56.145 15.562 55.9485 15.7303 55.7838L20.4363 51.0778L19.3985 50.035C19.2574 50.0969 19.1119 50.1481 18.9633 50.1883C18.0896 50.4267 17.1672 50.4206 16.2968 50.1707C15.4264 49.9207 14.6413 49.4365 14.0273 48.7708C13.3547 48.0691 12.8699 47.2092 12.6176 46.2705C12.4526 45.6364 12.4562 44.9702 12.6282 44.3379C12.8002 43.7057 13.1344 43.1294 13.5978 42.6662C14.0612 42.203 14.6377 41.869 15.27 41.6973C15.9024 41.5256 16.5686 41.5223 17.2026 41.6875C18.1408 41.9392 19.0007 42.4227 19.7029 43.0938C20.3659 43.7099 20.8483 44.4951 21.0982 45.365C21.3481 46.2349 21.356 47.1564 21.1211 48.0304C21.0696 48.2161 21.0012 48.3966 20.9165 48.5697L22.1407 49.7967C22.3277 49.7803 22.5157 49.7774 22.7032 49.7882C22.7186 49.7714 24.0792 48.394 24.0792 48.394C23.7297 47.708 23.6076 46.9286 23.7306 46.1686C23.8536 45.4086 24.2153 44.7075 24.7633 44.1668L27.8079 41.1222C27.9052 41.0215 28.0215 40.9412 28.1502 40.8859C28.2789 40.8306 28.4173 40.8015 28.5573 40.8003C28.6974 40.7991 28.8362 40.8258 28.9659 40.8788C29.0955 40.9318 29.2132 41.0101 29.3123 41.1092C29.4113 41.2082 29.4896 41.3259 29.5426 41.4556C29.5957 41.5852 29.6224 41.7241 29.6211 41.8641C29.6199 42.0041 29.5908 42.1425 29.5356 42.2712C29.4803 42.3999 29.3999 42.5163 29.2992 42.6136L26.2547 45.6574C26.1078 45.7853 25.9888 45.942 25.905 46.1178C25.8212 46.2936 25.7745 46.4848 25.7677 46.6794C25.7609 46.8741 25.7942 47.068 25.8655 47.2493C25.9368 47.4305 26.0445 47.5952 26.1821 47.733C26.3197 47.8708 26.4842 47.9789 26.6653 48.0505C26.8464 48.1221 27.0403 48.1558 27.235 48.1493C27.4296 48.1428 27.6209 48.0964 27.7968 48.013C27.9728 47.9295 28.1297 47.8108 28.2579 47.6641L31.3017 44.6196C31.3997 44.5217 31.516 44.444 31.6439 44.391C31.7719 44.338 31.9091 44.3108 32.0476 44.3108C32.1861 44.3109 32.3233 44.3382 32.4512 44.3912C32.5792 44.4442 32.6955 44.522 32.7934 44.6199C32.8913 44.7179 32.969 44.8342 33.0219 44.9622C33.0749 45.0902 33.1022 45.2273 33.1021 45.3658C33.1021 45.5044 33.0748 45.6415 33.0218 45.7695C32.9687 45.8974 32.891 46.0137 32.793 46.1116V46.1081ZM31.0465 42.8695C31.2442 43.0673 31.3553 43.3355 31.3553 43.6152C31.3553 43.8948 31.2442 44.163 31.0465 44.3608L29.1297 46.2768C29.0325 46.3776 28.9161 46.4579 28.7874 46.5132C28.6587 46.5685 28.5203 46.5976 28.3803 46.5988C28.2402 46.6 28.1014 46.5733 27.9717 46.5203C27.8421 46.4673 27.7244 46.3889 27.6253 46.2899C27.5263 46.1909 27.448 46.0731 27.395 45.9435C27.3419 45.8139 27.3153 45.675 27.3165 45.535C27.3177 45.3949 27.3468 45.2565 27.4021 45.1279C27.4573 44.9992 27.5377 44.8828 27.6384 44.7855L29.5551 42.8695C29.7529 42.6718 30.0211 42.5607 30.3008 42.5607C30.5805 42.5607 30.8487 42.6718 31.0465 42.8695ZM34.8251 26.4368C34.6548 26.6086 34.4522 26.7449 34.2289 26.8378C34.0056 26.9308 33.7661 26.9785 33.5243 26.9782H23.7438C23.2572 26.9778 22.7906 26.7843 22.4466 26.4403C22.1025 26.0962 21.909 25.6296 21.9086 25.143C21.9075 25.0984 21.9098 25.0537 21.9157 25.0094C21.9436 24.5698 22.1341 24.1562 22.4501 23.8493C22.6185 23.677 22.8198 23.5404 23.042 23.4474C23.2643 23.3544 23.5029 23.3069 23.7438 23.3079H33.5243C33.988 23.3067 34.4348 23.4819 34.7742 23.7978C35.1136 24.1137 35.3203 24.5468 35.3524 25.0094C35.3582 25.0537 35.3606 25.0984 35.3594 25.143C35.36 25.3832 35.3131 25.6212 35.2214 25.8432C35.1297 26.0653 34.995 26.267 34.8251 26.4368ZM58.2813 71.4438C58.2473 71.7878 58.0866 72.1068 57.8305 72.3389C57.5743 72.5709 57.2411 72.6995 56.8954 72.6996H43.7182C43.5612 72.7007 43.4098 72.642 43.2946 72.5354C43.1794 72.4288 43.1091 72.2824 43.098 72.1258C42.7008 66.3236 41.715 45.3811 47.0306 32.5729C47.5633 31.3046 47.9095 29.9658 48.0586 28.5982C48.2969 26.294 48.7772 21.6604 48.7617 19.0434C48.7698 18.8659 48.8452 18.6982 48.9726 18.5744C49.2496 18.2358 49.6334 18.0012 50.0611 17.9093C50.1428 17.9168 50.2206 17.9476 50.2853 17.9981C50.35 18.0486 50.3988 18.1166 50.426 18.194C51.6255 20.6915 52.3765 25.6711 52.8736 28.9659C52.9979 30.1497 53.216 31.3218 53.5261 32.471C57.8672 43.5522 59.0779 62.2244 58.2813 71.4438Z" fill="#DB3559"/>
</svg>
