<svg width="19" height="17" viewBox="0 0 19 17" fill="none" xmlns="http://www.w3.org/2000/svg">
<path d="M16.9555 6.15551C16.8436 5.81129 16.5383 5.56758 16.1785 5.53502L11.2711 5.0895L9.33167 0.548899C9.18848 0.215305 8.86267 0 8.50002 0C8.13738 0 7.81144 0.215305 7.66915 0.548899L5.72972 5.0895L0.821542 5.53502C0.461749 5.56823 0.157079 5.81193 0.044498 6.15551C-0.0674347 6.49974 0.0359377 6.87731 0.308052 7.11596L4.01766 10.3688L2.92388 15.1862C2.84385 15.5404 2.98134 15.9067 3.27524 16.1191C3.43322 16.2339 3.61882 16.2912 3.80507 16.2912C3.96513 16.2912 4.12531 16.2487 4.26837 16.1631L8.50002 13.6329L12.7309 16.1631C13.0413 16.3486 13.4315 16.3316 13.7248 16.1191C14.0187 15.9067 14.1562 15.5404 14.0762 15.1862L12.9824 10.3688L16.692 7.11596C16.964 6.87731 17.0675 6.50052 16.9555 6.15551Z" fill="#6DC3F3"/>
</svg>
