<svg width="22" height="19" viewBox="0 0 22 19" fill="none" xmlns="http://www.w3.org/2000/svg">
<path fill-rule="evenodd" clip-rule="evenodd" d="M3 2.65137C2.45228 2.65137 2 3.10365 2 3.65137V15.6514C2 16.1991 2.45228 16.6514 3 16.6514H19C19.5477 16.6514 20 16.1991 20 15.6514V3.65137C20 3.10365 19.5477 2.65137 19 2.65137H3ZM0 3.65137C0 1.99908 1.34772 0.651367 3 0.651367H19C20.6523 0.651367 22 1.99908 22 3.65137V15.6514C22 17.3037 20.6523 18.6514 19 18.6514H3C1.34772 18.6514 0 17.3037 0 15.6514V3.65137Z" fill="#DB3559"/>
<path fill-rule="evenodd" clip-rule="evenodd" d="M0.180762 3.07799C0.497477 2.62554 1.12101 2.51551 1.57346 2.83222L11 9.4308L20.4265 2.83222C20.879 2.51551 21.5025 2.62554 21.8192 3.07799C22.1359 3.53044 22.0259 4.15397 21.5735 4.47069L11.5735 11.4707C11.2291 11.7117 10.7709 11.7117 10.4265 11.4707L0.426532 4.47069C-0.0259174 4.15397 -0.135952 3.53044 0.180762 3.07799Z" fill="#DB3559"/>
</svg>
