<svg width="20" height="25" viewBox="0 0 20 25" fill="none" xmlns="http://www.w3.org/2000/svg">
<path fill-rule="evenodd" clip-rule="evenodd" d="M10 2.40137C7.87827 2.40137 5.84344 3.24422 4.34315 4.74451C2.84285 6.2448 2 8.27964 2 10.4014C2 13.4994 4.01574 16.5056 6.22595 18.8386C7.31061 19.9835 8.39867 20.9208 9.21668 21.5722C9.52111 21.8146 9.78702 22.0166 10 22.1739C10.213 22.0166 10.4789 21.8146 10.7833 21.5722C11.6013 20.9208 12.6894 19.9835 13.774 18.8386C15.9843 16.5056 18 13.4994 18 10.4014C18 8.27964 17.1571 6.2448 15.6569 4.74451C14.1566 3.24422 12.1217 2.40137 10 2.40137ZM10 23.4014C9.4453 24.2334 9.44505 24.2332 9.44476 24.2331L9.4419 24.2311L9.43524 24.2267L9.41232 24.2112C9.39285 24.1979 9.36508 24.179 9.32956 24.1544C9.25853 24.1052 9.15646 24.0335 9.02779 23.9406C8.77055 23.7548 8.40636 23.4836 7.97082 23.1368C7.10133 22.4444 5.93939 21.4442 4.77405 20.2141C2.48426 17.7971 0 14.3033 0 10.4014C5.96046e-08 7.7492 1.05357 5.20566 2.92893 3.3303C4.8043 1.45494 7.34784 0.401367 10 0.401367C12.6522 0.401367 15.1957 1.45494 17.0711 3.3303C18.9464 5.20566 20 7.7492 20 10.4014C20 14.3033 17.5157 17.7971 15.226 20.2141C14.0606 21.4442 12.8987 22.4444 12.0292 23.1368C11.5936 23.4836 11.2295 23.7548 10.9722 23.9406C10.8435 24.0335 10.7415 24.1052 10.6704 24.1544C10.6349 24.179 10.6072 24.1979 10.5877 24.2112L10.5648 24.2267L10.5581 24.2311L10.556 24.2326C10.5557 24.2327 10.5547 24.2334 10 23.4014ZM10 23.4014L10.5547 24.2334C10.2188 24.4573 9.78066 24.457 9.44476 24.2331L10 23.4014Z" fill="#DB3559"/>
<path fill-rule="evenodd" clip-rule="evenodd" d="M10 8.40137C8.89543 8.40137 8 9.2968 8 10.4014C8 11.5059 8.89543 12.4014 10 12.4014C11.1046 12.4014 12 11.5059 12 10.4014C12 9.2968 11.1046 8.40137 10 8.40137ZM6 10.4014C6 8.19223 7.79086 6.40137 10 6.40137C12.2091 6.40137 14 8.19223 14 10.4014C14 12.6105 12.2091 14.4014 10 14.4014C7.79086 14.4014 6 12.6105 6 10.4014Z" fill="#DB3559"/>
</svg>
