<svg width="22" height="23" viewBox="0 0 22 23" fill="none" xmlns="http://www.w3.org/2000/svg">
<path d="M20.9448 16.84V19.84C20.9459 20.1185 20.8888 20.3942 20.7773 20.6494C20.6657 20.9045 20.5021 21.1336 20.2968 21.3219C20.0916 21.5102 19.8493 21.6535 19.5855 21.7427C19.3217 21.8319 19.0421 21.8651 18.7648 21.84C15.6876 21.5057 12.7318 20.4542 10.1348 18.77C7.71859 17.2347 5.67009 15.1862 4.13476 12.77C2.44474 10.1612 1.393 7.19101 1.06476 4.10002C1.03977 3.82349 1.07263 3.54478 1.16126 3.28164C1.24988 3.01851 1.39233 2.77671 1.57952 2.57164C1.76672 2.36657 1.99456 2.20273 2.24855 2.09054C2.50253 1.97835 2.7771 1.92028 3.05476 1.92002H6.05476C6.54006 1.91524 7.01055 2.0871 7.37852 2.40355C7.74649 2.72001 7.98683 3.15947 8.05476 3.64002C8.18138 4.60009 8.41621 5.54275 8.75476 6.45002C8.8893 6.80794 8.91842 7.19693 8.83866 7.5709C8.75891 7.94486 8.57362 8.28813 8.30476 8.56002L7.03476 9.83002C8.45831 12.3336 10.5312 14.4065 13.0348 15.83L14.3048 14.56C14.5766 14.2912 14.9199 14.1059 15.2939 14.0261C15.6678 13.9464 16.0568 13.9755 16.4148 14.11C17.322 14.4486 18.2647 14.6834 19.2248 14.81C19.7105 14.8785 20.1542 15.1232 20.4713 15.4975C20.7884 15.8718 20.9569 16.3496 20.9448 16.84Z" stroke="#DB3559" stroke-width="2" stroke-linecap="round" stroke-linejoin="round"/>
</svg>
