<svg width="117" height="135" viewBox="0 0 117 135" fill="none" xmlns="http://www.w3.org/2000/svg">
<path d="M99.8672 100.419L91.8921 108.351C86.0132 114.148 78.3874 121.606 69.0081 130.727C66.1891 133.468 62.4213 135 58.5 135C54.5787 135 50.8109 133.468 47.9919 130.727L24.5368 107.783C21.5873 104.872 19.1215 102.419 17.1328 100.419C8.95184 92.1922 3.38067 81.7106 1.12378 70.2998C-1.13311 58.8889 0.0256259 47.0614 4.45347 36.3127C8.88132 25.5641 16.3794 16.3771 25.9996 9.91352C35.6198 3.44992 46.93 0 58.5 0C70.07 0 81.3802 3.44992 91.0004 9.91352C100.621 16.3771 108.119 25.5641 112.547 36.3127C116.974 47.0614 118.133 58.8889 115.876 70.2998C113.619 81.7106 108.048 92.1922 99.8672 100.419Z" fill="url(#paint0_linear_328_2)"/>
<path d="M43.6693 55.4891C43.7735 55.7285 44.0063 55.9554 44.2284 55.9228C44.5808 55.8691 45.0609 55.308 45.559 54.8666C47.3412 53.3239 49.5995 54.0117 50.2082 55.5419C50.8324 57.1017 49.501 58.503 49.6386 59.5381C49.6964 59.9888 50.0499 60.3535 50.516 60.4435C50.982 60.5334 51.456 60.3284 51.6926 59.9345C52.4372 58.7136 50.4491 56.3005 51.809 54.279C52.5465 53.2057 53.9002 52.6771 55.2139 52.9493C56.7841 53.3442 57.8198 54.7718 57.6553 56.3144C57.5739 56.9494 57.2671 57.6014 57.3762 57.955C57.4818 58.1924 57.7388 58.3346 58.0069 58.304C58.3439 58.243 58.6168 58.0068 58.7132 57.6924C58.994 56.8429 58.299 55.5528 58.9297 54.3008C59.5828 53.1568 60.9854 52.6058 62.2923 52.9796C65.4303 53.7568 65.8674 57.7623 67.062 58.1361C67.2728 58.2014 67.3444 58.1501 67.3875 58.1183C67.7093 57.7398 67.8598 57.2546 67.8058 56.7699C67.7464 56.0533 66.8976 54.1275 68.4284 53.2563C69.5254 52.6392 70.6655 53.2742 72.7122 53.8003C72.6471 53.599 72.5031 53.2928 72.3802 53.0169C72.1174 52.4553 71.7575 51.9398 71.3157 51.4921C69.9225 49.9938 68.2319 48.7742 66.3418 47.9039C66.0686 48.278 65.7587 48.6264 65.4165 48.9446C65.7674 49.0662 65.9852 49.4017 65.9432 49.756C65.9012 50.1102 65.6104 50.3907 65.2399 50.4344C61.073 50.9477 56.8536 50.9375 52.6895 50.4041C52.4025 50.3591 52.1625 50.1713 52.0598 49.9115C51.9571 49.6517 52.0074 49.3593 52.1916 49.1445C52.3759 48.9296 52.6662 48.825 52.9532 48.87C53.6115 48.971 53.0769 49.0052 52.0173 47.6218C49.4278 48.6321 46.1579 50.4593 44.5531 52.654C44.0461 53.3441 43.321 54.7127 43.6693 55.4891Z" fill="white"/>
<path d="M68.1166 36.0141C66.0007 34.9556 64.1216 34.78 62.5331 35.488C60.9446 36.196 59.7621 37.7418 58.989 40.0632C58.9703 40.0274 58.9459 39.9956 58.9304 39.9591C58.7435 39.5241 58.4336 39.1473 58.0352 38.871C57.2545 38.3186 56.253 38.1355 55.3139 38.3736C54.707 38.5481 54.1501 38.8534 53.6863 39.2658C51.7209 40.9546 51.4377 43.8286 53.0019 46.2479C53.9095 47.634 55.2914 48.6775 56.913 49.2011C58.6529 49.2717 60.3955 49.2548 62.1335 49.1506C63.4835 48.6525 64.6109 47.7228 65.3236 46.5199C65.8889 45.5267 66.0775 44.3774 65.8575 43.2667C65.7535 42.6641 65.506 42.0924 65.134 41.5958C64.5416 40.8608 63.6349 40.4189 62.6641 40.3919C62.18 40.3708 61.6998 40.4831 61.2807 40.7152C61.0186 40.866 60.7154 40.9388 60.4099 40.9243C61.0365 38.8034 61.9805 37.4504 63.2248 36.8962C64.3308 36.4035 65.7232 36.5698 67.3671 37.3913C67.6265 37.5376 67.9493 37.5351 68.2062 37.3848C68.4631 37.2345 68.612 36.9609 68.5932 36.6737C68.5744 36.3866 68.391 36.1328 68.1166 36.0141ZM55.8681 41.1341C55.6959 41.1341 55.5314 41.2019 55.4132 41.3214C55.2103 41.5311 55.0588 41.7811 54.9696 42.0535C54.8123 42.4557 54.3434 42.6599 53.9223 42.5097C53.5011 42.3595 53.2873 41.9117 53.4446 41.5095C53.6148 41.0179 53.9014 40.5703 54.282 40.2015C54.7613 39.742 55.4356 39.5192 56.1098 39.5977C56.4017 39.6345 56.65 39.8191 56.7591 40.0803C56.8681 40.3415 56.8209 40.6386 56.6356 40.8572C56.4503 41.0757 56.1559 41.1816 55.8656 41.1341H55.8681Z" fill="white"/>
<path d="M63.7424 66.4099C63.6667 66.3322 63.5935 66.2545 63.5227 66.1768C62.5378 67.9527 60.6053 69.0631 58.5009 69.0621C56.3965 69.0611 54.4652 67.949 53.482 66.1721C53.4276 66.2571 53.3626 66.3354 53.2884 66.4053C51.0317 68.6746 47.171 68.7927 44.2861 67.7482C45.512 71.8869 47.4736 75.7936 50.0852 79.2977C50.6362 79.4625 52.7455 79.942 58.5138 79.942C64.2486 79.942 66.3661 79.4687 66.9439 79.2977C69.5541 75.7943 71.5149 71.8887 72.7406 67.7513C69.8549 68.7966 65.995 68.6769 63.7424 66.4099ZM53.2688 78.2571C53.0893 78.3715 52.8694 78.4131 52.6578 78.3727C52.4461 78.3324 52.2599 78.2133 52.1401 78.0418C50.471 75.6512 48.858 71.0558 48.7897 70.8616C48.6978 70.5978 48.7603 70.3072 48.9535 70.0994C49.1468 69.8915 49.4415 69.7979 49.7266 69.8538C50.0118 69.9097 50.244 70.1066 50.3359 70.3704C50.3514 70.4162 51.948 74.9627 53.4959 77.1791C53.6155 77.3508 53.6588 77.5609 53.6162 77.763C53.5737 77.9652 53.4487 78.1429 53.2688 78.2571ZM56.8862 76.8333C56.8862 77.2625 56.5218 77.6105 56.0724 77.6105C55.6229 77.6105 55.2586 77.2625 55.2586 76.8333V71.3931C55.2586 70.9639 55.6229 70.616 56.0724 70.616C56.5218 70.616 56.8862 70.9639 56.8862 71.3931V76.8333ZM61.769 76.8333C61.769 77.2625 61.4046 77.6105 60.9552 77.6105C60.5057 77.6105 60.1414 77.2625 60.1414 76.8333V71.3931C60.1414 70.9639 60.5057 70.616 60.9552 70.616C61.4046 70.616 61.769 70.9639 61.769 71.3931V76.8333ZM68.2379 70.8616C68.1695 71.0558 66.5565 75.6512 64.8874 78.0418C64.7261 78.2728 64.4479 78.4041 64.1577 78.3861C63.8676 78.3682 63.6095 78.2037 63.4807 77.9548C63.3519 77.7058 63.3719 77.4102 63.5333 77.1791C65.0795 74.9603 66.6778 70.4178 66.6933 70.3704C66.8353 69.9626 67.2966 69.742 67.7235 69.8777C68.1505 70.0133 68.3815 70.4538 68.2395 70.8616H68.2379Z" fill="white"/>
<path d="M75.4173 60.2353C74.9599 58.4908 74.2055 56.8299 73.1842 55.3189C72.8996 55.3797 72.6039 55.3749 72.3216 55.3049C69.2234 54.5138 68.8401 53.8928 69.2853 55.8769C69.3496 56.1328 69.396 56.3924 69.4244 56.6541C69.5274 57.6552 69.1448 58.6462 68.386 59.3439C67.4502 60.0433 65.9259 59.8693 64.8867 58.116C64.1046 56.8072 63.4105 54.8627 61.8756 54.4827C61.3227 54.3168 60.7213 54.5175 60.397 54.9762C60.0714 55.629 60.6525 56.9906 60.2684 58.1533C59.987 59.0571 59.1785 59.7204 58.2005 59.8498C57.1423 59.9711 56.1421 59.3602 55.8136 58.3919C55.7022 57.6328 55.7795 56.8594 56.0391 56.1342C56.1055 55.3754 55.6033 54.6768 54.8379 54.4633C54.1939 54.3481 53.5398 54.6096 53.1737 55.1285C52.2858 56.4497 54.3089 58.7354 53.0988 60.7195C52.5111 61.6895 51.3403 62.1927 50.1903 61.9696C49.0403 61.7465 48.1679 60.8469 48.0231 59.7348C47.827 58.2442 49.0168 56.9152 48.688 56.093C48.5459 55.801 48.2567 55.5991 47.9222 55.5583C46.5762 55.378 46.0716 57.2152 44.4888 57.4538C43.9047 57.5365 43.3119 57.3713 42.8661 57.0015C40.9423 60.6449 40.5175 64.4227 44.4221 66.1208C46.9107 67.1948 50.5207 67.156 52.2581 65.1726C52.6027 64.7841 53.1254 64.5824 53.6559 64.6335C54.1863 64.6846 54.6564 64.9819 54.9128 65.4283C55.5778 66.7396 56.989 67.5539 58.5138 67.5065C60.0383 67.5542 61.4493 66.7405 62.1149 65.4299C62.3712 64.984 62.8408 64.687 63.3708 64.6358C63.9008 64.5846 64.4232 64.7856 64.7679 65.1734C66.5257 67.1723 70.1389 67.1894 72.6072 66.1223C75.1756 65.0056 75.9959 62.8839 75.4173 60.2353Z" fill="white"/>
<defs>
<linearGradient id="paint0_linear_328_2" x1="72.026" y1="176.625" x2="72.6366" y2="17.1634" gradientUnits="userSpaceOnUse">
<stop stop-color="#802034"/>
<stop offset="0.508333" stop-color="#DA3E60"/>
<stop offset="1" stop-color="#FA7491"/>
</linearGradient>
</defs>
</svg>
