<svg width="37" height="49" viewBox="0 0 37 49" fill="none" xmlns="http://www.w3.org/2000/svg">
<path d="M2.35398 22.4866C2.46385 22.739 2.70933 22.9784 2.94366 22.944C3.31532 22.8874 3.82174 22.2956 4.34705 21.83C6.22681 20.2029 8.6087 20.9283 9.25074 22.5423C9.90908 24.1875 8.50484 25.6654 8.6499 26.7572C8.71095 27.2326 9.08375 27.6173 9.57531 27.7121C10.0669 27.807 10.5668 27.5907 10.8163 27.1753C11.6017 25.8875 9.50481 23.3423 10.9391 21.2103C11.717 20.0782 13.1447 19.5207 14.5304 19.8078C16.1865 20.2243 17.2789 21.73 17.1054 23.3571C17.0196 24.0268 16.696 24.7145 16.811 25.0875C16.9224 25.3378 17.1934 25.4878 17.4762 25.4555C17.8317 25.3912 18.1195 25.1421 18.2212 24.8104C18.5174 23.9145 17.7843 22.5538 18.4496 21.2332C19.1384 20.0267 20.6177 19.4454 21.9962 19.8397C25.306 20.6595 25.7669 24.8842 27.0269 25.2785C27.2493 25.3473 27.3248 25.2932 27.3703 25.2596C27.7096 24.8605 27.8684 24.3487 27.8115 23.8374C27.7488 23.0817 26.8536 21.0505 28.4681 20.1316C29.6251 19.4807 30.8277 20.1504 32.9864 20.7054C32.9177 20.4931 32.7658 20.1701 32.6362 19.8791C32.359 19.2867 31.9795 18.743 31.5135 18.2708C30.044 16.6905 28.2608 15.4042 26.2673 14.4863C25.9791 14.8808 25.6523 15.2483 25.2914 15.5839C25.6615 15.7122 25.8912 16.066 25.8469 16.4397C25.8026 16.8133 25.4959 17.1092 25.1051 17.1552C20.7102 17.6966 16.2599 17.6859 11.8678 17.1233C11.5651 17.0758 11.312 16.8778 11.2037 16.6037C11.0953 16.3297 11.1484 16.0213 11.3427 15.7947C11.5371 15.5681 11.8432 15.4577 12.1459 15.5052C12.8403 15.6117 12.2764 15.6478 11.1588 14.1887C8.42759 15.2543 4.97878 17.1815 3.28614 19.4963C2.75139 20.2242 1.98661 21.6677 2.35398 22.4866Z" fill="#DB3559"/>
<path d="M28.1392 1.94562C25.9075 0.82919 23.9256 0.643937 22.2501 1.39069C20.5747 2.13744 19.3275 3.76782 18.5121 6.21628C18.4923 6.17857 18.4666 6.14496 18.4503 6.10644C18.2532 5.64763 17.9263 5.25027 17.5061 4.95885C16.6827 4.37617 15.6263 4.1831 14.6358 4.43424C13.9957 4.61828 13.4084 4.94023 12.9191 5.37526C10.8462 7.15647 10.5475 10.1877 12.1973 12.7395C13.1545 14.2014 14.6121 15.302 16.3225 15.8543C18.1576 15.9287 19.9955 15.911 21.8287 15.8011C23.2525 15.2756 24.4416 14.2951 25.1934 13.0264C25.7897 11.9788 25.9886 10.7666 25.7565 9.59509C25.6468 8.95956 25.3858 8.35659 24.9934 7.83273C24.3686 7.05759 23.4122 6.59146 22.3883 6.56301C21.8778 6.54075 21.3713 6.65912 20.9292 6.90401C20.6528 7.06301 20.333 7.13977 20.0107 7.12451C20.6717 4.88754 21.6673 3.46044 22.9797 2.87599C24.1462 2.3563 25.6148 2.53171 27.3487 3.39814C27.6223 3.5525 27.9628 3.54987 28.2337 3.3913C28.5047 3.23274 28.6617 2.94419 28.6419 2.6413C28.6221 2.33842 28.4287 2.07077 28.1392 1.94562ZM15.2203 7.34583C15.0388 7.34584 14.8652 7.4173 14.7405 7.54337C14.5266 7.76448 14.3668 8.02822 14.2727 8.31553C14.1068 8.73972 13.6122 8.95515 13.1681 8.7967C12.7239 8.63825 12.4983 8.16593 12.6642 7.74174C12.8438 7.22322 13.146 6.75116 13.5474 6.36218C14.053 5.87754 14.7642 5.64256 15.4753 5.72527C15.7832 5.76414 16.0451 5.95882 16.1601 6.23432C16.2751 6.50983 16.2253 6.82319 16.0299 7.05371C15.8345 7.28422 15.5239 7.39594 15.2178 7.34583H15.2203Z" fill="#DB3559"/>
<path d="M23.5257 34.0052C23.4459 33.9233 23.3686 33.8413 23.2939 33.7593C22.2551 35.6325 20.2169 36.8036 17.9973 36.8025C15.7777 36.8015 13.7407 35.6285 12.7037 33.7544C12.6464 33.844 12.5778 33.9266 12.4995 34.0003C10.1193 36.3938 6.04733 36.5184 3.00452 35.4168C4.29751 39.7819 6.36647 43.9025 9.12104 47.5984C9.70214 47.7721 11.927 48.2779 18.0109 48.2779C24.0596 48.2779 26.293 47.7787 26.9024 47.5984C29.6555 43.9032 31.7235 39.7838 33.0163 35.42C29.9727 36.5225 25.9016 36.3963 23.5257 34.0052ZM12.4789 46.5008C12.2895 46.6215 12.0576 46.6653 11.8344 46.6227C11.6111 46.5802 11.4147 46.4546 11.2883 46.2737C9.52789 43.7523 7.82667 38.9054 7.75457 38.7005C7.65766 38.4223 7.72354 38.1158 7.92738 37.8966C8.13122 37.6773 8.44206 37.5786 8.7428 37.6376C9.04355 37.6965 9.28851 37.9042 9.38541 38.1824C9.40172 38.2308 11.0858 43.0261 12.7183 45.3638C12.8445 45.5449 12.8902 45.7665 12.8453 45.9797C12.8004 46.1929 12.6686 46.3804 12.4789 46.5008ZM16.2942 44.9991C16.2942 45.4518 15.9099 45.8188 15.4358 45.8188C14.9618 45.8188 14.5775 45.4518 14.5775 44.9991V39.2612C14.5775 38.8084 14.9618 38.4415 15.4358 38.4415C15.9099 38.4415 16.2942 38.8084 16.2942 39.2612V44.9991ZM21.4442 44.9991C21.4442 45.4518 21.0599 45.8188 20.5859 45.8188C20.1118 45.8188 19.7275 45.4518 19.7275 44.9991V39.2612C19.7275 38.8084 20.1118 38.4415 20.5859 38.4415C21.0599 38.4415 21.4442 38.8084 21.4442 39.2612V44.9991ZM28.2672 38.7005C28.1951 38.9054 26.4938 43.7523 24.7334 46.2737C24.5632 46.5174 24.2698 46.6558 23.9637 46.6369C23.6577 46.6179 23.3855 46.4445 23.2496 46.1819C23.1138 45.9193 23.1349 45.6075 23.3051 45.3638C24.9359 43.0236 26.6217 38.2324 26.638 38.1824C26.7878 37.7524 27.2743 37.5197 27.7247 37.6627C28.175 37.8058 28.4187 38.2704 28.2689 38.7005H28.2672Z" fill="#DB3559"/>
<path d="M35.8395 27.4925C35.3571 25.6525 34.5614 23.9007 33.4842 22.3071C33.184 22.3711 32.8721 22.3661 32.5744 22.2923C29.3067 21.4579 28.9024 20.8029 29.3719 22.8956C29.4397 23.1655 29.4887 23.4393 29.5187 23.7153C29.6273 24.7712 29.2238 25.8165 28.4234 26.5523C27.4363 27.29 25.8287 27.1064 24.7326 25.2572C23.9077 23.8768 23.1755 21.8259 21.5567 21.4251C20.9735 21.25 20.3392 21.4617 19.9971 21.9456C19.6538 22.6341 20.2666 24.0702 19.8615 25.2965C19.5647 26.2498 18.712 26.9494 17.6805 27.0859C16.5643 27.2138 15.5094 26.5695 15.1629 25.5482C15.0454 24.7476 15.1269 23.9319 15.4007 23.1669C15.4708 22.3666 14.9411 21.6298 14.1338 21.4046C13.4545 21.2831 12.7646 21.5589 12.3785 22.1062C11.442 23.4997 13.5759 25.9105 12.2995 28.0032C11.6796 29.0263 10.4448 29.557 9.23186 29.3217C8.0189 29.0864 7.0988 28.1376 6.94607 26.9646C6.73921 25.3924 7.9941 23.9907 7.64733 23.1235C7.49743 22.8155 7.19244 22.6025 6.83964 22.5595C5.41994 22.3694 4.88777 24.3071 3.2183 24.5588C2.60222 24.646 1.97699 24.4717 1.50677 24.0817C-0.52234 27.9245 -0.970393 31.9091 3.14792 33.7001C5.77272 34.8329 9.58031 34.792 11.4129 32.7001C11.7762 32.2902 12.3276 32.0776 12.8871 32.1315C13.4466 32.1853 13.9424 32.4989 14.2128 32.9698C14.9142 34.3528 16.4026 35.2117 18.0109 35.1616C19.6188 35.212 21.1071 34.3538 21.8091 32.9714C22.0794 32.5011 22.5748 32.1879 23.1337 32.1338C23.6927 32.0798 24.2437 32.2918 24.6073 32.7009C26.4613 34.8092 30.2723 34.8272 32.8756 33.7018C35.5846 32.5238 36.4498 30.2861 35.8395 27.4925Z" fill="#DB3559"/>
</svg>
