<svg width="45" height="59" viewBox="0 0 45 59" fill="none" xmlns="http://www.w3.org/2000/svg">
<path d="M3.32871 26.5705C3.46421 26.8819 3.76695 27.177 4.05594 27.1346C4.51429 27.0648 5.13883 26.335 5.78666 25.7608C8.10489 23.7541 11.0424 24.6488 11.8342 26.6392C12.6461 28.6681 10.9143 30.4908 11.0932 31.8373C11.1685 32.4235 11.6282 32.8979 12.2344 33.0149C12.8407 33.1319 13.4572 32.8652 13.7649 32.3529C14.7335 30.7647 12.1475 27.6259 13.9163 24.9965C14.8757 23.6004 16.6364 22.9128 18.3453 23.2669C20.3878 23.7805 21.7349 25.6374 21.5209 27.6441C21.4151 28.47 21.016 29.3181 21.1579 29.7781C21.2952 30.0868 21.6295 30.2717 21.9782 30.232C22.4167 30.1527 22.7716 29.8454 22.8971 29.4364C23.2623 28.3315 22.3583 26.6534 23.1786 25.0248C24.0281 23.5368 25.8525 22.82 27.5526 23.3063C31.6343 24.3172 32.2028 29.5274 33.7567 30.0136C34.0309 30.0985 34.124 30.0318 34.1801 29.9904C34.5986 29.4982 34.7944 28.867 34.7242 28.2365C34.6469 27.3044 33.5429 24.7994 35.534 23.6662C36.9609 22.8635 38.444 23.6894 41.1062 24.3738C41.0215 24.112 40.8342 23.7137 40.6743 23.3548C40.3325 22.6243 39.8644 21.9538 39.2897 21.3714C37.4774 19.4225 35.2784 17.8361 32.8199 16.7041C32.4645 17.1907 32.0615 17.6439 31.6163 18.0577C32.0727 18.2159 32.3561 18.6524 32.3014 19.1131C32.2468 19.5739 31.8685 19.9388 31.3866 19.9956C25.9665 20.6633 20.4782 20.65 15.0617 19.9562C14.6884 19.8977 14.3762 19.6534 14.2426 19.3155C14.109 18.9775 14.1744 18.5972 14.4141 18.3177C14.6538 18.0383 15.0314 17.9022 15.4046 17.9607C16.261 18.0921 15.5655 18.1366 14.1873 16.3372C10.819 17.6513 6.56576 20.028 4.4783 22.8827C3.81882 23.7804 2.87565 25.5606 3.32871 26.5705Z" fill="#DB3559"/>
<path d="M35.1285 1.23785C32.3763 -0.138993 29.9321 -0.367457 27.8658 0.553474C25.7995 1.4744 24.2614 3.48508 23.2558 6.50464C23.2315 6.45814 23.1997 6.4167 23.1796 6.36918C22.9365 5.80336 22.5334 5.31332 22.0152 4.95392C20.9997 4.23533 19.697 3.99722 18.4754 4.30695C17.686 4.53392 16.9617 4.93095 16.3583 5.46746C13.8019 7.66415 13.4335 11.4025 15.4681 14.5494C16.6486 16.3524 18.4461 17.7096 20.5554 18.3908C22.8186 18.4826 25.0853 18.4606 27.346 18.3251C29.102 17.6771 30.5684 16.4678 31.4956 14.9032C32.2309 13.6113 32.4762 12.1164 32.19 10.6716C32.0548 9.88781 31.7328 9.1442 31.2489 8.49814C30.4783 7.5422 29.2989 6.96734 28.0362 6.93226C27.4066 6.90481 26.7819 7.05078 26.2367 7.35279C25.8958 7.54888 25.5015 7.64355 25.104 7.62472C25.9191 4.86597 27.147 3.106 28.7656 2.38523C30.2041 1.74431 32.0153 1.96065 34.1536 3.02917C34.491 3.21953 34.9109 3.21629 35.2451 3.02074C35.5792 2.82519 35.7729 2.46933 35.7485 2.0958C35.7241 1.72226 35.4855 1.39218 35.1285 1.23785ZM19.1963 7.89766C18.9723 7.89769 18.7583 7.98581 18.6045 8.14129C18.3407 8.41397 18.1437 8.73923 18.0276 9.09356C17.823 9.61669 17.2131 9.88237 16.6653 9.68696C16.1175 9.49155 15.8393 8.90906 16.0439 8.38593C16.2654 7.74646 16.6381 7.16429 17.1332 6.68458C17.7566 6.0869 18.6338 5.79711 19.5107 5.89911C19.8904 5.94705 20.2134 6.18713 20.3552 6.5269C20.4971 6.86667 20.4357 7.25312 20.1947 7.53741C19.9536 7.82169 19.5706 7.95947 19.1931 7.89766H19.1963Z" fill="#DB3559"/>
<path d="M29.4387 40.7754C29.3403 40.6743 29.245 40.5732 29.1529 40.4721C27.8718 42.7822 25.3581 44.2265 22.6208 44.2252C19.8835 44.2239 17.3713 42.7773 16.0925 40.4661C16.0218 40.5766 15.9372 40.6784 15.8406 40.7693C12.9052 43.7212 7.88348 43.8748 4.13092 42.5162C5.72551 47.8996 8.27705 52.9812 11.6741 57.5392C12.3908 57.7535 15.1345 58.3772 22.6375 58.3772C30.0971 58.3772 32.8515 57.7616 33.603 57.5392C36.9983 52.9821 39.5487 47.9019 41.1431 42.5202C37.3895 43.8799 32.3688 43.7242 29.4387 40.7754ZM15.8152 56.1856C15.5816 56.3344 15.2957 56.3885 15.0203 56.336C14.745 56.2835 14.5028 56.1286 14.347 55.9055C12.1759 52.796 10.0778 46.8186 9.98893 46.5658C9.86942 46.2227 9.95067 45.8448 10.2021 45.5744C10.4534 45.304 10.8368 45.1823 11.2077 45.255C11.5786 45.3277 11.8807 45.5838 12.0002 45.9269C12.0203 45.9866 14.0972 51.9004 16.1105 54.7834C16.2662 55.0067 16.3225 55.28 16.2671 55.543C16.2117 55.8059 16.0491 56.0371 15.8152 56.1856ZM20.5204 54.3336C20.5204 54.8919 20.0465 55.3445 19.4619 55.3445C18.8773 55.3445 18.4033 54.8919 18.4033 54.3336V47.2573C18.4033 46.699 18.8773 46.2464 19.4619 46.2464C20.0465 46.2464 20.5204 46.699 20.5204 47.2573V54.3336ZM26.8717 54.3336C26.8717 54.8919 26.3978 55.3445 25.8132 55.3445C25.2286 55.3445 24.7546 54.8919 24.7546 54.3336V47.2573C24.7546 46.699 25.2286 46.2464 25.8132 46.2464C26.3978 46.2464 26.8717 46.699 26.8717 47.2573V54.3336ZM35.2861 46.5658C35.1972 46.8186 33.0992 52.796 30.9281 55.9055C30.7182 56.206 30.3564 56.3768 29.9789 56.3534C29.6015 56.3301 29.2658 56.1162 29.0982 55.7924C28.9307 55.4685 28.9568 55.0839 29.1667 54.7834C31.1779 51.8973 33.2569 45.9886 33.277 45.9269C33.4618 45.3966 34.0617 45.1096 34.6171 45.286C35.1725 45.4625 35.473 46.0354 35.2883 46.5658H35.2861Z" fill="#DB3559"/>
<path d="M44.6249 32.7442C44.03 30.475 43.0487 28.3146 41.7202 26.3492C41.35 26.4283 40.9653 26.422 40.5981 26.331C36.5682 25.302 36.0697 24.4942 36.6487 27.0751C36.7323 27.4079 36.7928 27.7456 36.8297 28.086C36.9637 29.3881 36.466 30.6772 35.479 31.5847C34.2617 32.4945 32.279 32.2681 30.9272 29.9875C29.91 28.2851 29.007 25.7558 27.0106 25.2615C26.2914 25.0457 25.5091 25.3067 25.0872 25.9034C24.6638 26.7526 25.4196 28.5237 24.92 30.036C24.554 31.2116 23.5023 32.0744 22.2302 32.2428C20.8537 32.4005 19.5528 31.6059 19.1255 30.3463C18.9806 29.359 19.081 28.353 19.4187 27.4097C19.5051 26.4226 18.8518 25.5139 17.8563 25.2362C17.0185 25.0865 16.1677 25.4266 15.6915 26.1016C14.5367 27.8201 17.1682 30.7932 15.5941 33.374C14.8297 34.6357 13.3068 35.2903 11.8109 35.0001C10.315 34.7099 9.18034 33.5398 8.99198 32.0932C8.73687 30.1543 10.2845 28.4256 9.85681 27.3561C9.67194 26.9762 9.29582 26.7136 8.86072 26.6606C7.10988 26.4261 6.45358 28.8158 4.3947 29.1262C3.63492 29.2338 2.86385 29.0188 2.28395 28.5378C-0.218457 33.2769 -0.771019 38.1909 4.3079 40.3997C7.54494 41.7968 12.2407 41.7463 14.5007 39.1665C14.9488 38.661 15.6288 38.3987 16.3188 38.4652C17.0088 38.5317 17.6202 38.9183 17.9537 39.499C18.8188 41.2046 20.6543 42.2639 22.6377 42.2022C24.6207 42.2643 26.4561 41.2059 27.3218 39.5011C27.6552 38.921 28.2661 38.5348 28.9554 38.4681C29.6448 38.4015 30.3243 38.663 30.7727 39.1675C33.0592 41.7675 37.7591 41.7897 40.9697 40.4018C44.3105 38.9491 45.3775 36.1893 44.6249 32.7442Z" fill="#DB3559"/>
</svg>
