<svg width="90" height="90" viewBox="0 0 90 90" fill="none" xmlns="http://www.w3.org/2000/svg">
<path d="M49.1161 67.5703L47.7028 67.365C47.6853 67.3623 47.6687 67.3554 47.6545 67.3449C47.6403 67.3343 47.6289 67.3205 47.6212 67.3046L46.9884 66.0249C46.8052 65.6538 46.5218 65.3413 46.1703 65.1228C45.8188 64.9044 45.4131 64.7886 44.9993 64.7886C44.5854 64.7886 44.1798 64.9044 43.8283 65.1228C43.4767 65.3413 43.1933 65.6538 43.0101 66.0249L42.3773 67.3046C42.3696 67.3206 42.358 67.3345 42.3437 67.345C42.3294 67.3556 42.3127 67.3624 42.295 67.365L40.8825 67.5703C40.4727 67.6298 40.0878 67.8027 39.7712 68.0695C39.4547 68.3363 39.2191 68.6864 39.0911 69.0801C38.9631 69.4739 38.9479 69.8956 39.0472 70.2975C39.1464 70.6995 39.3562 71.0656 39.6527 71.3546L40.675 72.3495C40.6877 72.3621 40.6972 72.3775 40.7027 72.3945C40.7082 72.4115 40.7096 72.4296 40.7067 72.4472L40.4655 73.8535C40.3942 74.2618 40.4389 74.6819 40.5945 75.0661C40.75 75.4503 41.0102 75.7831 41.3455 76.0268C41.6808 76.2705 42.0778 76.4152 42.4912 76.4446C42.9047 76.4739 43.3181 76.3867 43.6844 76.1928L44.9501 75.529C44.9658 75.5207 44.9833 75.5164 45.001 75.5164C45.0188 75.5164 45.0363 75.5207 45.052 75.529L46.3176 76.1935C46.684 76.3861 47.097 76.4724 47.5099 76.4426C47.9228 76.4128 48.3191 76.2681 48.654 76.0248C48.9889 75.7814 49.2491 75.4493 49.405 75.0658C49.561 74.6823 49.6065 74.2629 49.5365 73.8549L49.2954 72.4486C49.2925 72.4315 49.2939 72.4139 49.2992 72.3974C49.3046 72.3809 49.3139 72.3659 49.3263 72.3537L50.3493 71.3567C50.6466 71.0676 50.8568 70.701 50.9563 70.2985C51.0557 69.896 51.0403 69.4736 50.9119 69.0794C50.7835 68.6852 50.5472 68.3348 50.2298 68.0681C49.9123 67.8014 49.5265 67.6289 49.1161 67.5703V67.5703Z" fill="#DB3559"/>
<path d="M63.533 64.8611L62.8749 64.7654L62.5781 64.1685C62.4336 63.8753 62.21 63.6284 61.9324 63.4558C61.6549 63.2831 61.3346 63.1917 61.0077 63.1917C60.6809 63.1917 60.3605 63.2831 60.083 63.4558C59.8054 63.6284 59.5818 63.8753 59.4373 64.1685V64.1685L59.1434 64.7654L58.4845 64.8611C58.1605 64.9077 57.8561 65.0442 57.6057 65.2551C57.3554 65.4661 57.1692 65.7429 57.0683 66.0544C56.9674 66.3658 56.9558 66.6992 57.0349 67.0169C57.114 67.3345 57.2805 67.6237 57.5156 67.8515L57.9931 68.3162L57.8799 68.9729C57.825 69.295 57.8612 69.626 57.9845 69.9285C58.1078 70.2311 58.3132 70.4931 58.5776 70.6851C58.842 70.8771 59.1547 70.9913 59.4806 71.0149C59.8064 71.0385 60.1324 70.9705 60.4216 70.8186L61.0109 70.5086L61.5994 70.8186C61.8886 70.9705 62.2146 71.0385 62.5405 71.0149C62.8663 70.9913 63.1791 70.8771 63.4434 70.6851C63.7078 70.4931 63.9132 70.2311 64.0365 69.9285C64.1598 69.626 64.1961 69.295 64.1412 68.9729L64.0287 68.3162L64.5047 67.8515C64.7388 67.6234 64.9044 67.3344 64.9828 67.0171C65.0611 66.6998 65.0491 66.3669 64.9481 66.056C64.847 65.7452 64.661 65.4689 64.411 65.2583C64.1611 65.0478 63.8571 64.9114 63.5337 64.8646L63.533 64.8611Z" fill="#DB3559"/>
<path d="M78.556 61.8336C78.4558 61.5223 78.27 61.2454 78.0198 61.0348C77.7696 60.8241 77.4651 60.6882 77.1413 60.6425L76.4825 60.5469L76.1871 59.9499C76.0427 59.6569 75.8191 59.4102 75.5417 59.2376C75.2643 59.0651 74.9441 58.9736 74.6174 58.9736C74.2907 58.9736 73.9705 59.0651 73.6931 59.2376C73.4157 59.4102 73.1921 59.6569 73.0477 59.9499L72.7524 60.5476L72.0936 60.6432C71.7702 60.6902 71.4665 60.8268 71.2167 61.0374C70.9669 61.248 70.781 61.5242 70.68 61.835C70.579 62.1457 70.5669 62.4784 70.6451 62.7957C70.7233 63.1129 70.8887 63.4019 71.1225 63.6301L71.6 64.0956L71.4875 64.7502C71.4321 65.0723 71.4679 65.4035 71.591 65.7063C71.7141 66.0091 71.9194 66.2715 72.1838 66.4637C72.4482 66.6559 72.7611 66.7702 73.0871 66.7938C73.4131 66.8174 73.7392 66.7494 74.0286 66.5973L74.6178 66.2872L75.207 66.5973C75.4963 66.7493 75.8223 66.8174 76.1482 66.7938C76.4742 66.7702 76.787 66.6559 77.0514 66.4638C77.3157 66.2717 77.5211 66.0095 77.6442 65.7068C77.7673 65.4041 77.8033 65.0729 77.7481 64.7509L77.6349 64.0949L78.1123 63.6301C78.3474 63.4025 78.5137 63.1133 78.5922 62.7956C78.6707 62.4779 78.6581 62.1445 78.556 61.8336V61.8336Z" fill="#DB3559"/>
<path d="M31.5134 64.8613L30.8553 64.7656L30.5614 64.1687C30.4168 63.8755 30.193 63.6287 29.9154 63.4561C29.6378 63.2835 29.3175 63.192 28.9906 63.192C28.6637 63.192 28.3434 63.2835 28.0658 63.4561C27.7882 63.6287 27.5644 63.8755 27.4198 64.1687L27.1259 64.7656L26.4671 64.8613C26.1428 64.9074 25.838 65.0436 25.5873 65.2544C25.3366 65.4652 25.1501 65.742 25.0489 66.0535C24.9476 66.365 24.9358 66.6986 25.0148 67.0165C25.0937 67.3343 25.2602 67.6237 25.4954 67.8517L25.9721 68.3164L25.8596 68.9731C25.8047 69.2952 25.8409 69.6262 25.9642 69.9287C26.0875 70.2313 26.293 70.4933 26.5573 70.6853C26.8217 70.8773 27.1344 70.9915 27.4603 71.0151C27.7861 71.0387 28.1121 70.9707 28.4014 70.8188L28.9899 70.5088L29.5791 70.8188C29.8684 70.9707 30.1943 71.0387 30.5202 71.0151C30.846 70.9915 31.1588 70.8773 31.4231 70.6853C31.6875 70.4933 31.8929 70.2313 32.0162 69.9287C32.1395 69.6262 32.1758 69.2952 32.1209 68.9731L32.0077 68.3164L32.4844 67.8517C32.7185 67.6236 32.8841 67.3346 32.9625 67.0173C33.0409 66.7 33.0288 66.3671 32.9278 66.0562C32.8267 65.7454 32.6407 65.4691 32.3907 65.2585C32.1408 65.048 31.8369 64.9116 31.5134 64.8648V64.8613Z" fill="#DB3559"/>
<path d="M17.9058 60.6425L17.2476 60.5469L16.9523 59.9492C16.8079 59.6562 16.5843 59.4094 16.3069 59.2369C16.0295 59.0643 15.7093 58.9729 15.3826 58.9729C15.0559 58.9729 14.7357 59.0643 14.4583 59.2369C14.1809 59.4094 13.9573 59.6562 13.8129 59.9492L13.5176 60.5469L12.858 60.6425C12.5346 60.6894 12.2308 60.8259 11.9809 61.0365C11.7311 61.2471 11.5451 61.5234 11.4442 61.8342C11.3432 62.145 11.3312 62.4779 11.4096 62.7951C11.488 63.1124 11.6536 63.4014 11.8877 63.6294L12.3652 64.0941L12.2519 64.7508C12.1969 65.0729 12.233 65.4039 12.3562 65.7065C12.4794 66.0091 12.6847 66.2712 12.9491 66.4632C13.2134 66.6552 13.5262 66.7694 13.852 66.793C14.1779 66.8165 14.5038 66.7485 14.793 66.5965L15.3823 66.2865L15.9722 66.5973C16.2614 66.7491 16.5874 66.817 16.9132 66.7933C17.239 66.7696 17.5517 66.6553 17.816 66.4632C18.0802 66.2712 18.2855 66.009 18.4086 65.7064C18.5317 65.4038 18.5677 65.0728 18.5126 64.7508L18.4001 64.0948L18.8775 63.6294C19.1116 63.4013 19.2772 63.1122 19.3555 62.7948C19.4339 62.4775 19.4218 62.1445 19.3207 61.8337C19.2195 61.5228 19.0334 61.2465 18.7833 61.036C18.5333 60.8255 18.2293 60.6892 17.9058 60.6425V60.6425Z" fill="#DB3559"/>
<path d="M61.2739 43.6922L48.2302 30.6485C47.5687 29.9858 46.7048 29.563 45.7757 29.4474C44.8465 29.3317 43.9054 29.5297 43.1016 30.0101L41.4528 28.3612C41.8413 27.8024 42.1303 27.1806 42.3071 26.5233C42.8907 24.3197 43.2718 20.0257 39.2661 16.02C37.7644 14.5912 35.9324 13.5563 33.9336 13.0078C32.6465 12.6649 31.2919 12.6664 30.0056 13.012C28.7193 13.3576 27.5464 14.0353 26.6046 14.9771C25.6627 15.9189 24.985 17.0917 24.6392 18.378C24.2935 19.6643 24.2919 21.0189 24.6347 22.3059C25.1829 24.3051 26.2178 26.1374 27.6469 27.6391C28.9532 29.0563 30.6226 30.0889 32.4739 30.625C34.3253 31.161 36.2881 31.1801 38.1495 30.6801C38.7945 30.507 39.4054 30.2252 39.9558 29.8469L41.6173 31.5084C41.1477 32.3108 40.9576 33.2462 41.0767 34.1682C41.1958 35.0902 41.6174 35.9466 42.2754 36.6033L55.3191 49.6462C55.71 50.0374 56.1742 50.3476 56.6851 50.5593C57.1959 50.771 57.7435 50.8799 58.2965 50.8799C58.8495 50.8799 59.3971 50.771 59.9079 50.5593C60.4188 50.3476 60.8829 50.0374 61.2739 49.6462V49.6462C62.063 48.8565 62.5063 47.7857 62.5063 46.6692C62.5063 45.5527 62.063 44.4819 61.2739 43.6922ZM37.6095 28.6411C35.4551 29.2127 32.2362 29.2444 29.1382 26.1471C27.9828 24.9271 27.1422 23.4438 26.6893 21.8257C26.4387 20.8876 26.4366 19.9004 26.6832 18.9613C26.9297 18.0221 27.4165 17.1633 28.0955 16.4693C28.6054 15.9605 29.2117 15.5585 29.8789 15.287C30.546 15.0155 31.2607 14.8798 31.981 14.888C32.4766 14.8894 32.9703 14.9477 33.4526 15.0616C35.0708 15.5153 36.5542 16.3561 37.7747 17.5113C40.8685 20.6051 40.8389 23.8268 40.268 25.9833C40.1026 26.6233 39.7687 27.2073 39.3012 27.6747C38.8337 28.1421 38.2496 28.4758 37.6095 28.6411V28.6411Z" fill="#DB3559"/>
<path d="M66.593 18.0872C66.0534 17.55 65.334 17.2316 64.5736 17.1935C64.537 16.4334 64.2188 15.7141 63.6809 15.1758C63.1431 14.6374 62.4241 14.3185 61.6641 14.2811C61.6306 13.6826 61.4245 13.1066 61.0707 12.6226C60.7169 12.1387 60.2305 11.7676 59.6703 11.5542C59.1101 11.3408 58.5001 11.2941 57.9139 11.42C57.3278 11.5458 56.7907 11.8386 56.3674 12.2632L49.5035 19.125C48.2831 20.3512 47.5419 21.9739 47.4142 23.6993C47.2866 25.4247 47.7808 27.1388 48.8074 28.5314L47.3534 29.9854C46.551 29.5158 45.6155 29.3258 44.6935 29.445C43.7715 29.5642 42.9151 29.986 42.2585 30.6443L29.2148 43.6865C28.4253 44.4762 27.9818 45.5471 27.9818 46.6638C27.9819 47.7805 28.4255 48.8514 29.2152 49.6409C30.0049 50.4305 31.0758 50.874 32.1925 50.874C33.3092 50.8739 34.3801 50.4302 35.1696 49.6406L48.2126 36.5976C48.8751 35.9362 49.2978 35.0725 49.4136 34.1435C49.5294 33.2146 49.3317 32.2735 48.8517 31.4697L50.2945 30.0269C51.6849 31.07 53.4051 31.5761 55.1388 31.4522C56.8725 31.3283 58.5032 30.5828 59.7312 29.3526L66.593 22.4908C67.1769 21.9068 67.5049 21.1148 67.5049 20.289C67.5049 19.4632 67.1769 18.6712 66.593 18.0872V18.0872ZM65.1017 20.9995L58.2399 27.8613C57.2707 28.7781 55.9821 29.2807 54.6482 29.2623C53.3142 29.2438 52.0401 28.7056 51.0967 27.7623C50.1533 26.8189 49.6152 25.5448 49.5967 24.2108C49.5782 22.8768 50.0808 21.5883 50.9977 20.6191L57.8595 13.758C58.0508 13.5751 58.3053 13.4729 58.57 13.4729C58.8347 13.4729 59.0892 13.5751 59.2805 13.758C59.4682 13.9468 59.5736 14.2023 59.5736 14.4685C59.5736 14.7348 59.4682 14.9902 59.2805 15.179L56.1797 18.2756C55.9876 18.4745 55.8813 18.7409 55.8837 19.0175C55.8861 19.294 55.997 19.5585 56.1925 19.7541C56.3881 19.9496 56.6526 20.0605 56.9292 20.0629C57.2057 20.0653 57.4721 19.959 57.671 19.7669L60.7718 16.6668C60.963 16.4839 61.2174 16.3818 61.482 16.3818C61.7466 16.3818 62.0009 16.4839 62.1921 16.6668C62.3804 16.8552 62.4861 17.1107 62.4861 17.377C62.4861 17.6433 62.3804 17.8988 62.1921 18.0872L59.0913 21.1879C58.8992 21.3869 58.7929 21.6533 58.7953 21.9298C58.7977 22.2063 58.9086 22.4709 59.1042 22.6664C59.2997 22.862 59.5643 22.9729 59.8408 22.9753C60.1173 22.9777 60.3838 22.8714 60.5827 22.6793L63.6834 19.5785C63.8719 19.39 64.1275 19.2842 64.394 19.2842C64.6604 19.2842 64.916 19.39 65.1045 19.5785C65.2929 19.7669 65.3988 20.0225 65.3988 20.289C65.3988 20.5555 65.2929 20.8111 65.1045 20.9995H65.1017Z" fill="#DB3559"/>
</svg>
