<svg width="90" height="90" viewBox="0 0 90 90" fill="none" xmlns="http://www.w3.org/2000/svg">
<path d="M76.6196 15.8273C76.1813 14.2468 75.2372 12.8534 73.9318 11.8604C72.6264 10.8674 71.0316 10.3295 69.3915 10.3289H20.6086C18.9682 10.3285 17.373 10.8661 16.0674 11.8593C14.7619 12.8524 13.818 14.2463 13.3805 15.8273C11.7141 21.8179 9.73129 29.482 9.73129 31.9992C9.85302 33.5679 10.4966 35.0507 11.5594 36.2109C12.5605 37.2275 13.8181 37.9543 15.1988 38.3139C15.3522 38.3504 15.489 38.437 15.5876 38.5601C15.6862 38.6831 15.7409 38.8355 15.743 38.9932V67.7144C15.7439 68.0868 15.8925 68.4435 16.1561 68.7065C16.4198 68.9695 16.7769 69.1171 17.1493 69.1171H72.8086C73.1816 69.1171 73.5393 68.969 73.803 68.7053C74.0667 68.4415 74.2149 68.0838 74.2149 67.7109V39.0023C74.2174 38.8438 74.2727 38.6906 74.372 38.5671C74.4713 38.4436 74.6091 38.3567 74.7633 38.3203C76.1591 37.967 77.4311 37.2374 78.4407 36.2109C79.5035 35.0507 80.1471 33.5679 80.2688 31.9992C80.2688 29.482 78.286 21.8179 76.6196 15.8273ZM28.2305 60.4617C27.8671 60.4623 27.5072 60.3913 27.1712 60.2528C26.8353 60.1142 26.5299 59.9108 26.2726 59.6542C26.0154 59.3976 25.8112 59.0927 25.6718 58.7571C25.5324 58.4216 25.4605 58.0618 25.4602 57.6984V56.7492H31.3243L32.175 60.4617H28.2305ZM55.6454 60.4617H34.3055C34.3055 60.3843 33.4899 56.7492 33.4899 56.7492H56.468C56.468 56.7492 55.6454 60.3843 55.6454 60.4617ZM64.4977 57.6984C64.4974 58.0618 64.4255 58.4216 64.2861 58.7571C64.1467 59.0927 63.9425 59.3976 63.6853 59.6542C63.428 59.9108 63.1226 60.1142 62.7867 60.2528C62.4507 60.3913 62.0908 60.4623 61.7274 60.4617H57.7829L58.6336 56.7492H64.4977V57.6984ZM66.4946 54.6398H23.4633C23.0624 54.6398 22.6779 54.4805 22.3944 54.197C22.1109 53.9135 21.9516 53.529 21.9516 53.1281C21.9516 52.7271 22.1109 52.3426 22.3944 52.0591C22.6779 51.7756 23.0624 51.6164 23.4633 51.6164H66.4946C66.8955 51.6164 67.28 51.7756 67.5635 52.0591C67.847 52.3426 68.0063 52.7271 68.0063 53.1281C68.0063 53.529 67.847 53.9135 67.5635 54.197C67.28 54.4805 66.8955 54.6398 66.4946 54.6398V54.6398ZM25.4602 47.7632V36.2039C26.2772 37.0291 27.2643 37.6664 28.3526 38.0714C29.441 38.4765 30.6045 38.6395 31.7623 38.5491C32.92 38.4588 34.0442 38.1173 35.0566 37.5483C36.0689 36.9794 36.9451 36.1966 37.6243 35.2546C37.674 35.1811 37.7411 35.1208 37.8195 35.0791C37.898 35.0374 37.9854 35.0156 38.0743 35.0156C38.164 35.0161 38.2523 35.0381 38.3318 35.0796C38.4113 35.1212 38.4797 35.1812 38.5313 35.2546C40.8446 38.4609 45.0704 39.5929 49.0922 37.5468C50.0589 36.9984 50.8715 36.2148 51.4547 35.2687C51.5061 35.1903 51.5759 35.1255 51.658 35.0802C51.7401 35.0349 51.8321 35.0103 51.9258 35.0085C52.0162 35.0098 52.1049 35.0329 52.1844 35.0757C52.264 35.1186 52.332 35.1799 52.3829 35.2546C53.0583 36.1925 53.9292 36.9725 54.9355 37.5409C55.9418 38.1093 57.0596 38.4525 58.2114 38.5468C59.3633 38.641 60.522 38.4841 61.6073 38.0869C62.6926 37.6897 63.6788 37.0616 64.4977 36.246V47.7632C64.4983 48.2247 64.3157 48.6674 63.9901 48.9944C63.6645 49.3213 63.2224 49.5057 62.761 49.507H27.1969C26.7355 49.5057 26.2934 49.3213 25.9678 48.9944C25.6422 48.6674 25.4596 48.2247 25.4602 47.7632V47.7632ZM76.9501 34.7273C76.3464 35.3334 75.6181 35.801 74.8158 36.0977C74.0134 36.3943 73.1562 36.513 72.3034 36.4455C71.4506 36.3779 70.6227 36.1257 69.8771 35.7064C69.1315 35.2871 68.4859 34.7107 67.9852 34.0171C67.7397 33.6715 67.4149 33.3896 67.0382 33.1951C66.6614 33.0006 66.2436 32.8991 65.8196 32.8991C65.3956 32.8991 64.9777 33.0006 64.601 33.1951C64.2242 33.3896 63.8995 33.6715 63.654 34.0171C63.1077 34.7745 62.3894 35.3913 61.5582 35.8166C60.7269 36.242 59.8065 36.4639 58.8727 36.4639C57.9389 36.4639 57.0185 36.242 56.1872 35.8166C55.356 35.3913 54.6377 34.7745 54.0915 34.0171C53.8459 33.6715 53.5212 33.3896 53.1444 33.1951C52.7677 33.0006 52.3498 32.8991 51.9258 32.8991C51.5018 32.8991 51.084 33.0006 50.7072 33.1951C50.3305 33.3896 50.0057 33.6715 49.7602 34.0171C49.213 34.7735 48.4945 35.3895 47.6635 35.8148C46.8324 36.2401 45.9125 36.4626 44.979 36.464C44.0509 36.4652 43.136 36.2436 42.3114 35.8178C41.4867 35.3921 40.7763 34.7745 40.2399 34.0171C39.993 33.6734 39.6678 33.3933 39.2912 33.2001C38.9147 33.0069 38.4975 32.9062 38.0743 32.9062C37.651 32.9062 37.2339 33.0069 36.8573 33.2001C36.4807 33.3933 36.1555 33.6734 35.9086 34.0171C35.3624 34.7745 34.6441 35.3913 33.8128 35.8166C32.9816 36.242 32.0612 36.4639 31.1274 36.4639C30.1936 36.4639 29.2732 36.242 28.4419 35.8166C27.6107 35.3913 26.8924 34.7745 26.3461 34.0171C26.1006 33.6715 25.7759 33.3896 25.3991 33.1951C25.0224 33.0006 24.6045 32.8991 24.1805 32.8991C23.7565 32.8991 23.3387 33.0006 22.9619 33.1951C22.5852 33.3896 22.2604 33.6715 22.0149 34.0171C21.5142 34.7107 20.8686 35.2871 20.123 35.7064C19.3774 36.1257 18.5495 36.3779 17.6967 36.4455C16.8439 36.513 15.9867 36.3943 15.1843 36.0977C14.382 35.801 13.6537 35.3334 13.05 34.7273C12.3841 33.9587 11.963 33.0087 11.8407 31.9992C11.8407 30.2484 13.1414 24.5601 15.4125 16.3898C15.7311 15.2543 16.4117 14.2539 17.3509 13.5407C18.29 12.8274 19.4364 12.4403 20.6157 12.4382H69.3844C70.5637 12.4403 71.7101 12.8274 72.6492 13.5407C73.5884 14.2539 74.269 15.2543 74.5876 16.3898C76.8586 24.5601 78.1594 30.2484 78.1594 31.9992C78.0371 33.0087 77.616 33.9587 76.9501 34.7273ZM75.3188 71.2265H14.7938C14.0645 71.211 13.3566 71.4734 12.8135 71.9603C12.2704 72.4473 11.9327 73.1225 11.8688 73.8492C11.8487 74.2246 11.9052 74.6003 12.0349 74.9532C12.1647 75.3061 12.3649 75.6289 12.6234 75.9019C12.882 76.1749 13.1934 76.3924 13.5387 76.5412C13.8841 76.6899 14.2561 76.7668 14.6321 76.7671H75.1641C75.8929 76.7808 76.5998 76.5178 77.1425 76.0312C77.6852 75.5446 78.0235 74.8704 78.0891 74.1445C78.1085 73.7686 78.0512 73.3927 77.9207 73.0397C77.7902 72.6867 77.5893 72.3639 77.3302 72.0909C77.0711 71.818 76.7591 71.6006 76.4133 71.452C76.0676 71.3034 75.6952 71.2267 75.3188 71.2265V71.2265Z" fill="#DB3559"/>
</svg>
