<svg width="90" height="90" viewBox="0 0 90 90" fill="none" xmlns="http://www.w3.org/2000/svg">
<path d="M46.125 43.0432C45.9562 43.0432 45.7899 43.0836 45.64 43.1612C45.4901 43.2388 45.3611 43.3512 45.2636 43.489C45.1814 43.5183 45.0963 43.5388 45.0098 43.5502C44.9185 43.5396 44.8287 43.5191 44.7419 43.489C44.6127 43.3061 44.4286 43.1691 44.2163 43.0978C44.004 43.0265 43.7746 43.0247 43.5611 43.0925C43.3477 43.1603 43.1614 43.2943 43.0293 43.4751C42.8971 43.6558 42.8258 43.874 42.8259 44.0979C42.8259 45.2658 44.3207 45.6595 45.0056 45.6595C45.6904 45.6595 47.1853 45.2658 47.1853 44.0979C47.1853 43.9589 47.1578 43.8213 47.1044 43.693C47.0511 43.5646 46.9729 43.4481 46.8744 43.3501C46.7758 43.2521 46.6589 43.1745 46.5303 43.1219C46.4017 43.0692 46.2639 43.0425 46.125 43.0432Z" fill="#DB3559"/>
<path d="M56.9813 31.448C55.8898 31.0084 54.7211 30.7926 53.5447 30.8137C52.3682 30.8347 51.2079 31.092 50.1329 31.5703C49.9187 31.6768 49.7505 31.8577 49.66 32.0791C49.5694 32.3005 49.5625 32.5473 49.6407 32.7734C49.7187 33.0108 49.884 33.2097 50.1033 33.3297C50.3225 33.4497 50.5792 33.4818 50.8212 33.4195C52.3923 32.9686 54.027 32.7799 55.6594 32.8613C56.8238 33.0019 57.2548 32.6834 57.3976 32.3367C57.4559 32.1635 57.4452 31.9744 57.3677 31.8089C57.2901 31.6434 57.1517 31.5141 56.9813 31.448Z" fill="#DB3559"/>
<path d="M38.9967 40.6581C38.8587 40.6584 38.7219 40.6315 38.5943 40.5789C38.4666 40.5262 38.3506 40.449 38.2528 40.3515C37.6017 39.7032 35.5922 40 34.9727 40.4331C34.8595 40.5142 34.7312 40.5721 34.5955 40.6034C34.4597 40.6347 34.3191 40.6388 34.1817 40.6155C34.0443 40.5921 33.9129 40.5418 33.7951 40.4673C33.6774 40.3929 33.5755 40.2959 33.4954 40.1818C33.4153 40.0678 33.3586 39.939 33.3286 39.803C33.2986 39.6669 33.2958 39.5262 33.3205 39.3891C33.3451 39.252 33.3967 39.1211 33.4723 39.004C33.5478 38.8869 33.6458 38.7859 33.7606 38.7069C34.9664 37.8632 38.1516 37.2747 39.7406 38.856C39.8886 39.0033 39.9895 39.1912 40.0306 39.3959C40.0717 39.6006 40.0511 39.8129 39.9714 40.0058C39.8917 40.1988 39.7566 40.3638 39.5831 40.4799C39.4096 40.596 39.2055 40.658 38.9967 40.6581Z" fill="#DB3559"/>
<path d="M51.0034 40.6582C50.7946 40.6581 50.5905 40.5961 50.417 40.48C50.2435 40.3639 50.1083 40.1989 50.0287 40.0059C49.949 39.813 49.9284 39.6007 49.9695 39.396C50.0106 39.1913 50.1115 39.0034 50.2594 38.8561C51.8471 37.2748 55.0344 37.8605 56.236 38.707C56.3508 38.786 56.4488 38.887 56.5243 39.0041C56.5999 39.1212 56.6514 39.2521 56.6761 39.3892C56.7007 39.5263 56.698 39.667 56.668 39.8031C56.6379 39.9391 56.5813 40.0679 56.5012 40.1819C56.4211 40.296 56.3192 40.393 56.2014 40.4674C56.0836 40.5419 55.9522 40.5922 55.8149 40.6156C55.6775 40.6389 55.5369 40.6348 55.4011 40.6035C55.2653 40.5722 55.1371 40.5143 55.0238 40.4332C54.4044 39.998 52.3955 39.7033 51.7437 40.3516C51.5471 40.5476 51.281 40.6578 51.0034 40.6582Z" fill="#DB3559"/>
<path d="M23.3529 59.4021C22.4446 60.3103 21.9342 61.5422 21.9341 62.8267C21.9341 63.4628 22.0594 64.0926 22.3027 64.6802C22.5461 65.2678 22.9028 65.8018 23.3525 66.2515C23.8023 66.7013 24.3362 67.0581 24.9238 67.3015C25.5114 67.545 26.1412 67.6703 26.7772 67.6703C28.0617 67.6704 29.2937 67.1601 30.202 66.2519C31.1745 65.198 31.8473 63.9031 32.1504 62.5014C32.5448 60.7239 32.2467 59.2298 31.3109 58.2939C29.3238 56.3062 25.1782 57.5767 23.3529 59.4021Z" fill="#DB3559"/>
<path d="M66.647 59.4021C64.8189 57.5739 60.6754 56.3083 58.6891 58.2939C57.7532 59.2298 57.4551 60.7239 57.8495 62.5014C58.1527 63.9031 58.8254 65.198 59.7979 66.2519C60.7062 67.1602 61.9382 67.6704 63.2227 67.6703C64.5072 67.6702 65.7391 67.1599 66.6474 66.2516C67.5556 65.3432 68.0659 64.1113 68.0658 62.8267C68.0657 61.5422 67.5554 60.3103 66.647 59.4021Z" fill="#DB3559"/>
<path d="M70.8004 37.5876C70.6115 37.1758 70.5671 36.7122 70.6746 36.272C71.5158 32.6241 71.5522 28.8366 70.7811 25.1731C70.01 21.5097 68.4501 18.0582 66.2097 15.0588C61.3828 8.67017 53.8495 5.15173 45 5.15173C36.1504 5.15173 28.6171 8.66736 23.7895 15.0595C21.5496 18.059 19.9901 21.5104 19.2192 25.1737C18.4484 28.837 18.4849 32.6243 19.3261 36.272C19.4329 36.7123 19.3883 37.1758 19.1995 37.5876C18.8171 38.5441 18.6431 39.5711 18.6892 40.6001C18.7353 41.6292 19.0003 42.6366 19.4667 43.555C20.605 45.9639 22.8136 48.0698 25.4285 48.0698C25.7451 48.0678 26.0609 48.0356 26.3714 47.9734C27.0899 51.3127 28.6633 54.4081 30.9375 56.9566C32.9364 59.0659 35.943 60.7823 39.8671 62.095C39.4066 64.1341 37.7641 65.0756 34.9017 66.5367C33.9813 67.0063 33.0307 67.4915 32.0231 68.0835C29.2275 69.6434 26.8365 71.8367 25.0418 74.4876C23.8851 76.386 24.5144 78.6009 26.7257 80.4177C29.3273 82.5588 35.4965 84.8474 45 84.8474C54.5034 84.8474 60.6705 82.5602 63.2735 80.4177C65.4855 78.6002 66.1148 76.3832 64.961 74.4869C63.1663 71.836 60.7752 69.6427 57.9796 68.0828C56.9721 67.4887 56.0214 67.0035 55.1011 66.5359C52.2386 65.0749 50.5961 64.1327 50.1356 62.0943C54.0555 60.7823 57.0621 59.0624 59.0625 56.9566C61.3334 54.4066 62.9033 51.3108 63.6187 47.972C63.9323 48.036 64.2514 48.0688 64.5714 48.0698C67.1857 48.0698 69.3949 45.9604 70.5332 43.5557C70.9997 42.6372 71.2648 41.6297 71.3109 40.6005C71.357 39.5713 71.1829 38.5442 70.8004 37.5876ZM21.3707 42.6501C20.5523 40.919 20.4609 38.6078 21.8693 37.5405C22.8126 36.9994 23.922 36.8242 24.9862 37.0483C25.0284 37.5545 25.1641 39.4052 25.1971 39.7905C24.5959 39.5517 23.9504 39.445 23.3043 39.4776C23.029 39.5038 22.7751 39.6378 22.5981 39.8504C22.4211 40.063 22.3353 40.3369 22.3593 40.6124C22.3841 40.8884 22.5154 41.1438 22.7255 41.3245C22.9356 41.5051 23.2078 41.5968 23.4843 41.5799C23.8635 41.575 24.2385 41.6592 24.5791 41.8258C24.9197 41.9924 25.2165 42.2367 25.4454 42.539C25.5635 43.6274 25.7189 44.7588 25.9298 45.9077C23.755 46.2817 22.0739 44.1351 21.375 42.6536L21.3707 42.6501ZM45.9189 79.1015C45.6262 79.3139 45.2672 79.415 44.9066 79.3865C44.546 79.3581 44.2073 79.2019 43.9515 78.9462C43.6956 78.6904 43.5394 78.3518 43.5108 77.9912C43.4822 77.6306 43.5832 77.2716 43.7955 76.9788C43.8684 76.8637 43.9659 76.7662 44.081 76.6933C44.3738 76.4809 44.7327 76.3798 45.0933 76.4083C45.454 76.4367 45.7926 76.5929 46.0484 76.8486C46.3043 77.1044 46.4605 77.443 46.4891 77.8036C46.5177 78.1642 46.4168 78.5232 46.2044 78.816C46.1317 78.9313 46.0342 79.0288 45.9189 79.1015ZM51.1825 67.7038C51.2041 67.6796 51.2323 67.6621 51.2635 67.6535C51.2948 67.6449 51.328 67.6456 51.3589 67.6554C51.3898 67.6652 51.4172 67.6838 51.4379 67.7088C51.4585 67.7339 51.4714 67.7644 51.475 67.7966C51.5388 68.3088 51.4878 68.8286 51.3259 69.3186C51.1639 69.8086 50.8949 70.2564 50.5385 70.6295C49.4093 71.7264 47.4349 71.8249 45.1469 70.8869C45.0526 70.849 44.9473 70.849 44.853 70.8869C42.5643 71.8227 40.5893 71.7264 39.4614 70.6295C39.1048 70.2561 38.8356 69.808 38.6737 69.3176C38.5117 68.8272 38.4608 68.307 38.5249 67.7945C38.5288 67.7624 38.5419 67.732 38.5627 67.7071C38.5834 67.6822 38.6109 67.6637 38.6418 67.654C38.6727 67.6443 38.7058 67.6437 38.7371 67.6523C38.7683 67.6609 38.7965 67.6783 38.8181 67.7024C40.154 69.0862 42.6375 69.8856 45 69.8856C47.3625 69.8856 49.8459 69.0876 51.1825 67.7038ZM40.0275 65.8314C40.9535 65.0089 41.6057 63.9227 41.8964 62.7187C42.1776 62.796 42.4413 62.8783 42.7282 62.9521C44.2181 63.3365 45.7812 63.3365 47.2711 62.9521C47.5579 62.8783 47.8251 62.796 48.1036 62.718C48.3934 63.9229 49.0454 65.0102 49.9718 65.8335C49.4901 66.7891 47.3955 67.7798 45 67.7798C42.6044 67.7798 40.5098 66.7863 40.0275 65.8314ZM62.7813 38.4201C62.4297 43.394 61.889 50.9104 57.5296 55.506C55.3232 57.8341 51.6424 59.665 46.5939 60.9468C45.5476 61.2119 44.4516 61.2119 43.4053 60.9468C38.3575 59.665 34.6767 57.8341 32.4696 55.506C28.1102 50.9076 27.5716 43.4502 27.2172 38.5143C27.2004 38.2837 27.1842 38.0713 27.168 37.852C27.6674 37.9201 28.1708 37.9546 28.6748 37.9553C30.0953 37.9213 31.4597 37.3943 32.5343 36.4647C32.6429 36.3774 32.7745 36.3232 32.9132 36.3087C33.0519 36.2943 33.1918 36.3201 33.3161 36.3831C35.227 37.1951 37.3456 37.3824 39.3693 36.9182C41.7705 36.4724 49.7608 34.2049 51.75 23.6952C51.7576 23.613 51.793 23.5358 51.8504 23.4764C51.9078 23.4169 51.9837 23.3788 52.0657 23.3683C52.4334 23.3163 52.9839 23.6967 53.4114 24.6283C54.4183 26.8185 55.1158 28.7226 55.7318 30.4024C56.9636 33.7682 57.8531 36.1996 60.1157 37.2824C60.7246 37.573 61.3909 37.7229 62.0655 37.7212C62.3248 37.7188 62.5835 37.6953 62.8389 37.6509C62.82 37.8984 62.801 38.1508 62.7813 38.4201ZM68.625 42.6543C67.9218 44.1372 66.2343 46.2874 64.0596 45.9027C64.2705 44.7588 64.4252 43.6324 64.544 42.5467C64.7729 42.2454 65.0686 42.0011 65.4077 41.8331C65.7468 41.6651 66.1203 41.578 66.4987 41.5785C66.7772 41.6045 67.0547 41.5189 67.27 41.3403C67.4853 41.1618 67.6209 40.905 67.6469 40.6265C67.6729 40.348 67.5872 40.0706 67.4087 39.8552C67.2302 39.6399 66.9734 39.5043 66.6949 39.4783C66.0465 39.4485 65.3993 39.5576 64.7964 39.7982C64.8281 39.3763 64.9631 37.5278 65.0018 37.0497C66.0691 36.8231 67.1825 36.9983 68.1286 37.5419C69.539 38.6113 69.4448 40.9218 68.625 42.6543Z" fill="#DB3559"/>
<path d="M51.6973 49.2954C51.6705 49.2495 51.6402 49.2057 51.6066 49.1646C51.5393 48.5204 51.2707 47.9138 50.839 47.431C50.4072 46.9483 49.8343 46.6138 49.2016 46.4753C48.5689 46.3368 47.9087 46.4012 47.3147 46.6595C46.7207 46.9177 46.2232 47.3566 45.893 47.9137L44.4375 50.3578C42.7795 50.2325 41.1719 49.7307 39.7371 48.8904C39.4937 48.7616 39.2096 48.7332 38.9455 48.8111C38.6813 48.8891 38.4582 49.0672 38.3237 49.3075C38.1891 49.5478 38.1539 49.8312 38.2256 50.0971C38.2972 50.3629 38.47 50.5903 38.707 50.7305C40.6055 51.8781 42.7816 52.4848 45 52.4848C47.2184 52.4848 49.3945 51.8781 51.293 50.7305C51.5368 50.5937 51.7164 50.3657 51.7922 50.0966C51.868 49.8275 51.8339 49.5393 51.6973 49.2954Z" fill="#DB3559"/>
</svg>
